/* XPM */
static char *result[] = {
/* columns rows colors chars-per-pixel */
"64 64 96 2 ",
"   c #002057",
".  c #002058",
"X  c #002158",
"o  c #002159",
"O  c #00215A",
"+  c #00225B",
"@  c #00225C",
"#  c #00225D",
"$  c #00235D",
"%  c #00235E",
"&  c #00245F",
"*  c #002460",
"=  c #002760",
"-  c #002663",
";  c #002664",
":  c #002765",
">  c #002766",
",  c #002767",
"<  c #002867",
"1  c #002868",
"2  c #002869",
"3  c #00296A",
"4  c #00296B",
"5  c #002A6C",
"6  c #002A6D",
"7  c #002A6E",
"8  c #002B6E",
"9  c #002B6F",
"0  c #002B70",
"q  c #002C70",
"w  c #002C72",
"e  c #002D73",
"r  c #002D75",
"t  c #002D76",
"y  c #002E77",
"u  c #002E78",
"i  c #003078",
"p  c #003079",
"a  c #00307A",
"s  c #00317B",
"d  c #00327E",
"f  c #003380",
"g  c #003381",
"h  c #003482",
"j  c #003483",
"k  c #003584",
"l  c #003585",
"z  c #003686",
"x  c #003687",
"c  c #003688",
"v  c #003788",
"b  c #003789",
"n  c #00378A",
"m  c #00388B",
"M  c #00398E",
"N  c #00398F",
"B  c #003990",
"V  c #003B91",
"C  c #003B92",
"Z  c #003C92",
"A  c #003C93",
"S  c #003C94",
"D  c #003D95",
"F  c #003D96",
"G  c #003D97",
"H  c #003E99",
"J  c #003F9A",
"K  c #003F9B",
"L  c #003F9C",
"P  c #00419E",
"I  c #00419F",
"U  c #0042A0",
"Y  c #0042A1",
"T  c #0043A3",
"R  c #0043A4",
"E  c #0044A5",
"W  c #0044A6",
"Q  c #0044A7",
"!  c #0045A8",
"~  c #0046AA",
"^  c #0046AB",
"/  c #0047AC",
"(  c #0047AD",
")  c #0049AE",
"_  c #0049AF",
"`  c #0049B0",
"'  c #004AB2",
"]  c #004BB4",
"[  c #004CB6",
"{  c #004DB9",
"}  c #004EBA",
"|  c #0050BF",
" . c #0050C0",
".. c #0051C1",
"X. c #0052C4",
"o. c #0053C8",
/* pixels */
"                                                                                                                                ",
"                                                                                                                                ",
"                                                                                                                                ",
"                                                                                                                                ",
"                                                                                                                                ",
"                                                                                                                                ",
"                                                                                                                                ",
"                          @                                                                                                     ",
"                          X                                                                                                     ",
"                                                                                                                                ",
"                                                                                                                                ",
"                                                                                                  O + o                         ",
"                                                                                              * w m G R Y 4 X                   ",
"                                                                                            @ q A J q 1 r ^ a                   ",
"                                                                                            - C B . O .   8 ` *                 ",
"                                                                                            1 U 2 d o.s . @ K r                 ",
"                                                                                            * Y % ! Y O   O B 0                 ",
"                                                                                              D q   o +   - M -                 ",
"                                                                                              5 A 6 $ & * c V p n ;             ",
"                                                                                                9 b z l B D - @ 8 E -           ",
"                                                                                                  O 8 u h @ l -   M y           ",
"                                                                                                  + . 8 x 1 ..& . D a           ",
"                                                                                                      : S <   . 3 L :           ",
"                                                                                                      @ e m h z Q t             ",
"                                                                                                      X 6 f N N ,               ",
"                                                                                                        X                       ",
"                                                                                                                                ",
"                                                                                                                                ",
"                                                                                                                                ",
"                                                                                                                                ",
"                                                                                                                                ",
"                                                                                                                                ",
"                                                                                                                                ",
"                                                                                                                                ",
"                                                                                                                                ",
"                                                                                                                                ",
"                                                                                                                                ",
"                                                                                                                                ",
"                                                                                                                                ",
"        o I _ K *                                                                                                               ",
"        4  .* < z .                                                                                                             ",
"        : | & d F X                                                                                                             ",
"          I { ( +                                                                                                               ",
"            < O       O                                                                                                         ",
"                o % @ : 5 >                                                                                                     ",
"              @ j I ! P J H s +                                                                                                 ",
"            : [ W h : o . w ] k O                                                                                               ",
"          o ~ b .           > ( i                                                                                               ",
"          5 _ *               Z J +                                                                                             ",
"          a Y O           . o w / &                                                                                             ",
"          p ! %           % o > ` *                                                                                             ",
"          8 ' *         Z X.* r E @                                                                                             ",
"          @ ) g       T } 8   ~ v o                                                                                             ",
"            m } @     + O O c S %                                                                                               ",
"            # P ! -     ; H P -                                                                                                 ",
"              + E { R T L M 7                                                                                                   ",
"                o 5 v V h * .                                                                                                   ",
"                                                                                                                                ",
"                                                                                                                                ",
"                                                                                                                                ",
"                                                                                                                                ",
"                                                                                                                                ",
"                                                                                                                                ",
"                                                                                                                            X = "
};
