/* XPM */
static char *result[] = {
/* columns rows colors chars-per-pixel */
"64 64 162 2 ",
"   c #000924",
".  c #000925",
"X  c #000A25",
"o  c #000926",
"O  c #000A26",
"+  c #000A27",
"@  c #000B29",
"#  c #000B2A",
"$  c #000B2B",
"%  c #000C2B",
"&  c #000C2C",
"*  c #000C2D",
"=  c #000D2D",
"-  c #000D2E",
";  c #000D2F",
":  c #000E30",
">  c #000E32",
",  c #000E33",
"<  c #001033",
"1  c #001034",
"2  c #001035",
"3  c #001136",
"4  c #001137",
"5  c #001237",
"6  c #001238",
"7  c #001239",
"8  c #00123A",
"9  c #00133A",
"0  c #00133C",
"q  c #00133D",
"w  c #00143D",
"e  c #00143E",
"r  c #00143F",
"t  c #00163F",
"y  c #001640",
"u  c #001641",
"i  c #001742",
"p  c #001743",
"a  c #001844",
"s  c #001845",
"d  c #001847",
"f  c #001948",
"g  c #001949",
"h  c #001A49",
"j  c #001A4A",
"k  c #001A4B",
"l  c #001B4D",
"z  c #001B4E",
"x  c #001C4E",
"c  c #001C4F",
"v  c #001C50",
"b  c #001E51",
"n  c #001E53",
"m  c #001F54",
"M  c #001F55",
"N  c #001F56",
"B  c #002055",
"V  c #002056",
"C  c #002057",
"Z  c #002058",
"A  c #002158",
"S  c #002159",
"D  c #00215A",
"F  c #00225B",
"G  c #00225C",
"H  c #00225D",
"J  c #00235D",
"K  c #00235E",
"L  c #00235F",
"P  c #00245F",
"I  c #002460",
"U  c #002760",
"Y  c #002462",
"T  c #002662",
"R  c #002663",
"E  c #002664",
"W  c #002765",
"Q  c #002766",
"!  c #002767",
"~  c #002867",
"^  c #002868",
"/  c #002869",
"(  c #00296A",
")  c #00296B",
"_  c #00296C",
"`  c #002A6C",
"'  c #002A6E",
"]  c #002B6E",
"[  c #002B6F",
"{  c #002B70",
"}  c #002C71",
"|  c #002C72",
" . c #002D73",
".. c #002C74",
"X. c #002D75",
"o. c #002D76",
"O. c #002E76",
"+. c #002E77",
"@. c #002E78",
"#. c #003079",
"$. c #00307A",
"%. c #00317B",
"&. c #00317C",
"*. c #00317D",
"=. c #00327D",
"-. c #00327E",
";. c #00337F",
":. c #003380",
">. c #003381",
",. c #003482",
"<. c #003483",
"1. c #003484",
"2. c #003584",
"3. c #003585",
"4. c #003687",
"5. c #003688",
"6. c #003689",
"7. c #00378A",
"8. c #00378B",
"9. c #00388B",
"0. c #00388C",
"q. c #00388E",
"w. c #00398F",
"e. c #003990",
"r. c #003B91",
"t. c #003B92",
"y. c #003B93",
"u. c #003C93",
"i. c #003C94",
"p. c #003C95",
"a. c #003D95",
"s. c #003D96",
"d. c #003D97",
"f. c #003E98",
"g. c #003E9A",
"h. c #003F9A",
"j. c #003F9B",
"k. c #003F9C",
"l. c #00409C",
"z. c #00409D",
"x. c #00409E",
"c. c #00419F",
"v. c #0041A0",
"b. c #0041A1",
"n. c #0042A1",
"m. c #0042A2",
"M. c #0042A3",
"N. c #0043A4",
"B. c #0043A5",
"V. c #0044A6",
"C. c #0044A7",
"Z. c #0044A8",
"A. c #0045A8",
"S. c #0045A9",
"D. c #0045AA",
"F. c #0046AA",
"G. c #0046AB",
"H. c #0046AC",
"J. c #0047AD",
"K. c #0047AF",
"L. c #0049AF",
"P. c #0049B0",
/* pixels */
"C C C C C C C C C C C C C C C C C C C C C C C C C C C C C C C C C C C C C C C C C C C C C C C C C C C C C C C C C C C C C C C C ",
"C C C C C C C C C C C C C C C C C C C C C C C C C C A C C C C C C C C C C C C C C C C C C C C C C C C C C C C C C C C C C C C C ",
"C C C C C C C C C C C C C C C C C C C C C Z F Q [ #.=.%...~ G Z C C C C C C C C C C C C C C C C C C C C C C C C C C C C C C C C ",
"C C C C C C C C C C C C C C C C C C C C F ^ 5.g.j.a.f.x.b.k.<.E A C C C C C C C C C C C C C C C C C C C C C C C C C C C C C C C ",
"C C C C C C C C C C C C C C C C C C C D  .x.C.l.1.! R { 7.c.B.t.Q C C C C C C C C C C C C C C C C C C C C C C C C C C C C C C C ",
"C C C C C C C C C C C C C C C C C C S ] v.D.d.{ +.7.&.C F ' s.V.4.D C C C C C C C C C C C C C C C C C C C C C C C C C C C C C C ",
"C C C C C C C C C C C C C C C C C C Y f.G.f.^ 4.V.N.4.C C F ] m.b.W C C C C C C C C C C C C C C C C C C C C C C C C C C C C C C ",
"C C C C C C C C C C C C C C C C C C ) V.Z.` D d.B.w.! C C C Y p.N.} C C C C C C C C C C C C C C C C C C C C C C C C C C C C C C ",
"C C C C C C C C C C C C C C C C C A | S.m.I Z [ | J C C C C J 4.x.$.C C C C C C C C C C C C C C C C C C C C C C C C C C C C C C ",
"C C C C C C C C C C C C F $.t.7.Q S } V.n.I C C C C C C C C H :.j.@.C C C C C C C C C C C C C C C C C C C C C C C C C C C C C C ",
"C C C C C C C C C C C C ! D.P.L.6.Z W p.m.X.D C C C C C C C I <.j.( C C C C C C C C C C C C C C C C C C C C C C C C C C C C C C ",
"C C C C C C C C C C C C ! G.P.P.8.C F | h.i._ D C C C C C S ~ r.u.L C C C C C C C C C C C C C C C C C C C C C C C C C C C C C C ",
"C C C C C C C C C C C C F ,.x.f.` C C G o.d.p.O.P G G K E [ 9.x.#.A C C C C C C C C C C C C C C C C C C C C C C C C C C C C C C ",
"C C C C C C C C C C C C C C Z Z C C C C G ] a.s.0.>.*.,.e.j.l.9.P C C C C C C C C C C C C C C C C C C C C C C C C C C C C C C C ",
"C C C C C C C C C C C C C C C C C C Z Z Z S E ;.y.h.x.x.h.i.$.I Z C C C C C C C C C C C C C C C C C C C C C C C C C C C C C C C ",
"C C C C C C C C C C C C C C Z F R W { ( L S Z G ( -.5.3.X.Y D D R I Z C C C C C C C C C C C C C C C C C C C C C C C C C C C C C ",
"C C C C C C C C C C C C C Z { p.f.t.k.N.f.] S C A D F D A C L x.L.G./ C C C C C C C C C C C C C C C C C C C C C C C C C C C C C ",
"C C C C C C C C C C C C C } c.Z.s.:.<.x.G.m.^ C C C C C C C ^ H.P.K.} C C C C C C C C C C C C C C C C C C C C C C C C C C C C C ",
"C C C C C C C C C C C C S q.A.f.I Z S ^ B.H.#.C C C C C C C Y g.Z.f.W C C C C C C C C C C C C C C C C C C C C C C C C C C C C C ",
"C C C C C C C C C C C C G r.V.2.Z C Z ^ B.F.o.C C C C V M n v c x x x c n M C C V V C C C C C C C C C C C C C C C C C C C C C C ",
"C C C C C C C C C C C C G o.k.8.E F H 0.S.z.T v l j s y 6 < - & % % % * ; > 1 2 1 6 u x m C C C C C C C C C C C C C C C C C C C ",
"C C C C C C C C C C C C C K -.g.w.5.s.B.v.R 5 - # O .                                 X - y l N C C C C C C C C C C C C C C C C ",
"C C C C C C C C C C C C C Z Q r.c.c.x.e.G #                                                 + 3 j m C C C C C C C C C C C C C C ",
"C C C C C C C C C C C C C C B D ' o.R e O                                                       . # t b C C C C C C C C C C C C ",
"C C C C C C C C C C C C m h 4 # o                                                                     ; l C C C C C C C C C C C ",
"C C C C C C C C C C C b w # . @ g D k +                                                                 % l C C C C C C C C C C ",
"C C C C C C C C C C m 7 O     8 N.L.S.v         . . .                                                     = v C C C C C C C C C ",
"C C C C C C C C C M e O       y H.P.L.E       % / =.b +                                                     < m C C C C C C C C ",
"C C C C C C C C V j @         > t.F.m.z       1 M.J.e.*                                                       s C C C C C C C C ",
"C C C C C C C C M e .     .   . 2 i 0 @       : j.D.4.%                                                       = m C C C C C C C ",
"C C C C C C C C M 9 .     .                   O e f 3                                                         . d C C C C C C C ",
"C C C C C C C C V p X                                                                                           7 V C C C C C C ",
"C C C C C C C C C k +                                                                                           5 V C C C C C C ",
"C C C C C C C C C x %                                                                                         X i C C C C C C C ",
"C C C C C C C C C m e O                                                                                     O 4 n C C C C C C C ",
"C C C C C C C C C C n 9 .                                                                                   0 m C C C C C C C C ",
"C C C C C C C C C C C b 5                                                                               X 9 n C C C C C C C C C ",
"C C C C C C C C C C C C n u +                                                                         & i m C C C C C C C C C C ",
"C C C C C C C C C C C C C V c q +                                                                 # e v V C C C C C C C C C C C ",
"C C C C C C C C C C C C C C C V b y % .                                                     . $ r v V C C C C C C C C C C C C C ",
"C C C C C C C C C C C C C C C C C C m k 9 - @ O .                               . . . O # < i b V C C C C C C C C C C C C C C C ",
"C C C C C C C C C C C C C C C C C C C C V m c g 0 ; # # & & # # % & - : , 1 1 1 1 3 0 a x N C C C C C C C C C C C C C C C C C C ",
"C C C C C C C C C C C C C C C C C C C C C C C C V b z z m V C V V C C V V V C C C C C C C C C C C C C C C C C C C C C C C C C C ",
"C C C C C C C C C C C C C C C C C C C C C C C C C C C C C C C C C C C C C C C C C C C C C C C C C C C C C C C C C C C C C C C C ",
"C C C C C C C C C C C C C C C C C C C C C C C C C C C C C C C C C C C C C C C C C C C C C C C C C C C C C C C C C C C C C C C C ",
"C C C C C C C C C C C C C C C C C C C C C C C C C C C C C C C C C C C C C C C C C C C C C C C C C C C C C C C C C C C C C C C C ",
"C C C C C C C C C C C C C C C C C C C C C C C C C C C C C C C C C C C C C C C C C C C C C C C C C C C C C C C C C C C C C C C C ",
"C C C C C C C C C C C C C C C C C C C C C C C C C C C C C C C C C C C C C C C C C C C C C C C C C C C C C C C C C C C C C C C C ",
"C C C C C C C C C C C C C C C C C C C C C C C C C C C C C C C C C C C C C C C C C C C C C C C C C C C C C C C C C C C C C C C C ",
"C C C C C C C C C C C C C C C C C C C C C C C C C C C C C C C C C C C C C C C C C C C C C C C C C C C C C C C C C C C C C C C C ",
"C C C C C C C C C C C C C C C C C C C C C C C C C C C C C C C C C C C C C C C C C C C C C C C C C C C C C C C C C C C C C C C C ",
"C C C C C C C C C C C C C C C C C C C C C C C C C C C C C C C C C C C C C C C C C C C C C C C C C C C C C C C C C C C C C C C C ",
"C C C C C C C C C C C C C C C C C C C C C C C C C C C C C C C C C C C C C C C C C C C C C C C C C C C C C C C C C C C C C C C C ",
"C C C C C C C C C C C C C C C C C C C C C C C C C C C C C C C C C C C C C C C C C C C C C C C C C C C C C C C C C C C C C C C C ",
"C C C C C C C C C C C C C C C C C C C C C C C C C C C C C C C C C C C C C C C C C C C C C C C C C C C C C C C C C C C C C C C C ",
"C C C C C C C C C C C C C C C C C C C C C C C C C C C C C C C C C C C C C C C C C C C C C C C C C C C C C C C C C C C C C C C C ",
"C C C C C C C C C C C C C C C C C C C C C C C C C C C C C C C C C C C C C C C C C C C C C C C C C C C C C C C C C C C C C C C C ",
"C C C C C C C C C C C C C C C C C C C C C C C C C C C C C C C C C C C C C C C C C C C C C C C C C C C C C C C C C C C C C C C C ",
"C C C C C C C C C C C C C C C C C C C C C C C C C C C C C C C C C C C C C C C C C C C C C C C C C C C C C C C C C C C C C C C C ",
"C C C C C C C C C C C C C C C C C C C C C C C C C C C C C C C C C C C C C C C C C C C C C C C C C C C C C C C C C C C C C C C C ",
"C C C C C C C C C C C C C C C C C C C C C C C C C C C C C C C C C C C C C C C C C C C C C C C C C C C C C C C C C C C C C C C C ",
"C C C C C C C C C C C C C C C C C C C C C C C C C C C C C C C C C C C C C C C C C C C C C C C C C C C C C C C C C C C C C C C C ",
"C C C C C C C C C C C C C C C C C C C C C C C C C C C C C C C C C C C C C C C C C C C C C C C C C C C C C C C C C C C C C C C C ",
"C C C C C C C C C C C C C C C C C C C C C C C C C C C C C C C C C C C C C C C C C C C C C C C C C C C C C C C C C C C C C C A U "
};
