/* XPM */
static char *result[] = {
/* columns rows colors chars-per-pixel */
"64 64 143 2 ",
"   c #000924",
".  c #000925",
"X  c #000A25",
"o  c #000A26",
"O  c #000A27",
"+  c #000A29",
"@  c #000B29",
"#  c #000B2A",
"$  c #000B2B",
"%  c #000C2B",
"&  c #000C2C",
"*  c #000C2D",
"=  c #000D2D",
"-  c #000D2E",
";  c #000D2F",
":  c #000E30",
">  c #000E32",
",  c #000E33",
"<  c #001033",
"1  c #001034",
"2  c #001035",
"3  c #001135",
"4  c #001136",
"5  c #001137",
"6  c #001237",
"7  c #001238",
"8  c #001239",
"9  c #00123A",
"0  c #00133A",
"q  c #00133C",
"w  c #00133D",
"e  c #00143D",
"r  c #00143E",
"t  c #00143F",
"y  c #00163F",
"u  c #001640",
"i  c #001641",
"p  c #001742",
"a  c #001743",
"s  c #001844",
"d  c #001845",
"f  c #001847",
"g  c #001948",
"h  c #001949",
"j  c #001A49",
"k  c #001A4A",
"l  c #001A4B",
"z  c #001A4C",
"x  c #001B4D",
"c  c #001B4E",
"v  c #001C4E",
"b  c #001C4F",
"n  c #001C50",
"m  c #001E51",
"M  c #001E53",
"N  c #001F54",
"B  c #001F55",
"V  c #001F56",
"C  c #002056",
"Z  c #002057",
"A  c #002058",
"S  c #002158",
"D  c #002159",
"F  c #00215A",
"G  c #00225B",
"H  c #00225C",
"J  c #00225D",
"K  c #00235D",
"L  c #00235E",
"P  c #00235F",
"I  c #002460",
"U  c #002760",
"Y  c #002462",
"T  c #002663",
"R  c #002664",
"E  c #002765",
"W  c #002766",
"Q  c #002767",
"!  c #002868",
"~  c #002869",
"^  c #00296B",
"/  c #00296C",
"(  c #002A6C",
")  c #002A6D",
"_  c #002A6E",
"`  c #002B70",
"'  c #002C71",
"]  c #002C72",
"[  c #002D75",
"{  c #002D76",
"}  c #002E77",
"|  c #002E78",
" . c #003079",
".. c #00317B",
"X. c #00317D",
"o. c #00327E",
"O. c #00337F",
"+. c #003380",
"@. c #003381",
"#. c #003482",
"$. c #003484",
"%. c #003584",
"&. c #003585",
"*. c #003586",
"=. c #003687",
"-. c #003688",
";. c #003789",
":. c #00378A",
">. c #00378B",
",. c #00388B",
"<. c #00388C",
"1. c #00388E",
"2. c #00398F",
"3. c #003990",
"4. c #003B91",
"5. c #003B92",
"6. c #003C93",
"7. c #003C94",
"8. c #003C95",
"9. c #003D96",
"0. c #003D97",
"q. c #003F9A",
"w. c #003F9B",
"e. c #003F9C",
"r. c #00409C",
"t. c #00409D",
"y. c #00409E",
"u. c #00419F",
"i. c #0041A0",
"p. c #0041A1",
"a. c #0042A1",
"s. c #0042A2",
"d. c #0042A3",
"f. c #0043A4",
"g. c #0043A5",
"h. c #0044A6",
"j. c #0044A7",
"k. c #0044A8",
"l. c #0045AA",
"z. c #0046AB",
"x. c #0046AC",
"c. c #0047AD",
"v. c #0049B0",
/* pixels */
"Z Z Z Z Z Z Z Z Z Z Z Z Z Z Z Z Z Z Z Z Z Z Z Z Z Z Z Z Z Z Z Z Z Z Z Z Z Z Z Z Z Z Z Z Z Z Z Z Z Z Z Z Z Z Z Z Z Z Z Z Z Z Z Z ",
"Z Z Z Z Z Z Z Z Z Z Z Z Z Z Z Z Z Z Z Z Z Z Z Z Z Z Z Z Z Z Z Z Z Z Z Z Z Z Z Z Z Z Z Z Z Z Z Z Z Z Z Z Z Z Z Z Z Z Z Z Z Z Z Z ",
"Z Z Z Z Z Z Z Z Z Z Z Z Z Z Z Z Z Z Z Z Z Z Z Z Z Z Z Z Z Z Z Z Z Z Z Z Z Z Z Z Z Z Z Z Z Z Z Z Z Z Z Z Z Z Z Z Z Z Z Z Z Z Z Z ",
"Z Z Z Z Z Z Z Z Z Z Z Z Z Z Z Z Z Z Z Z Z Z Z Z Z Z Z Z Z Z Z Z Z Z Z Z Z Z Z Z Z Z Z Z Z Z Z Z Z Z Z Z Z Z Z Z Z Z Z Z Z Z Z Z ",
"Z Z Z Z Z Z Z Z Z Z Z Z Z Z Z F !  .+.../ H Z Z Z Z Z Z Z Z Z Z Z Z Z Z Z Z Z Z Z Z Z Z Z Z Z Z Z Z Z Z Z Z Z Z Z Z Z Z Z Z Z Z ",
"Z Z Z Z Z Z Z Z Z Z Z Z Z A ' 5.u.d.j.l.g.@.I D Z Z Z Z Z Z Z Z Z Z Z Z Z Z Z Z Z Z Z Z Z Z Z Z Z Z Z Z Z Z Z Z Z Z Z Z Z Z Z Z ",
"Z Z Z Z Z Z Z Z Z Z Z Z A { w.d.p.r.t.h.z.j.:.T S Z Z Z Z Z Z Z Z Z Z Z Z Z Z Z Z Z Z Z Z Z Z Z Z Z Z Z Z Z Z Z Z Z Z Z Z Z Z Z ",
"Z Z Z Z Z Z Z Z Z Z Z A E 7.e.*.) I K ~ $.y.f.1.Y Z Z Z Z Z Z Z Z Z Z Z Z Z Z Z Z Z Z Z Z Z Z Z Z Z Z Z Z Z Z Z Z Z Z Z Z Z Z Z ",
"Z Z Z Z Z Z Z Z Z Z Z F #.q.X.] 2.8.{ K ` :.u.p.X.D Z Z Z Z Z Z Z Z Z Z Z Z Z Z Z Z Z Z Z Z Z Z Z Z Z Z Z Z Z Z Z Z Z Z Z Z Z Z ",
"Z Z Z Z Z Z Z Z Z Z Z H 1.6.] 0.z.h.o.A D ! -.w.3.Y Z Z Z Z Z Z Z Z Z Z Z Z Z Z Z Z Z Z Z Z Z Z Z Z Z Z Z Z Z Z Z Z Z Z Z Z Z Z ",
"Z Z Z Z Z Z Z Z Z Z Z J 1.;.~ t.k.8.Q Z Z F T <.0.( Z Z Z Z Z Z Z Z Z Z Z Z Z Z Z Z Z Z Z Z Z Z Z Z Z Z Z Z Z Z Z Z Z Z Z Z Z Z ",
"Z Z Z Z Z Z Z Z Z Z Z J -.>.E  ...R Z Z Z Z J @.w.] Z Z Z Z Z Z Z Z Z Z Z Z Z Z Z Z Z Z Z Z Z Z Z Z Z Z Z Z Z Z Z Z Z Z Z Z Z Z ",
"Z Z Z Z Z Z Z Z Z Z Z G o.5.^ D Z Z Z Z Z Z H +.w.( Z Z Z Z Z Z Z Z Z Z Z Z Z Z Z Z Z Z Z Z Z Z Z Z Z Z Z Z Z Z Z Z Z Z Z Z Z Z ",
"Z Z Z Z Z Z Z Z Z Z Z D ! 2.-.E F A Z Z Z D W 4.9.T Z Z Z Z Z Z Z Z Z Z Z Z Z Z Z Z Z Z Z Z Z Z Z Z Z Z Z Z Z Z Z Z Z Z Z Z Z Z ",
"Z Z Z Z Z Z Z Z Z Z Z Z G ] 3.>.( K H G K W %.8.[ D Z Z Z Z Z Z Z Z Z Z Z Z Z Z Z Z Z Z Z Z Z Z Z Z Z Z Z Z Z Z Z Z Z Z Z Z Z Z ",
"Z Z Z Z Z Z Z Z Z Z Z Z A G ] 4.9.3.=.-.,.9.w.+.L Z Z Z Z Z Z Z Z Z Z Z Z Z Z Z Z Z Z Z Z Z Z Z Z Z Z Z Z Z Z Z Z Z Z Z Z Z Z Z ",
"Z Z Z Z Z Z Z Z Z Z Z Z Z A G ] 5.t.u.i.t.0.+.P A Z Z Z Z Z Z Z Z Z Z Z Z Z Z Z Z Z Z Z Z Z Z Z Z Z Z Z Z Z Z Z Z Z Z Z Z Z Z Z ",
"Z Z Z Z Z Z Z Z Z D T W K Z Z F I Q ~ Q T L G A Z Z Z Z Z Z Z Z Z Z Z Z Z Z Z Z Z Z Z Z Z Z Z Z Z Z Z Z Z Z Z Z Z Z Z Z Z Z Z Z ",
"Z Z Z Z Z Z Z Z Z I s.x.y.Y Z Z Z Z Z Z Z Z Z Z Z Z Z Z Z Z Z Z Z Z Z Z Z Z Z Z Z Z Z Z Z Z Z Z Z Z Z Z Z Z Z Z Z Z Z Z Z Z Z Z ",
"Z Z Z Z Z Z Z Z Z R x.v.c.( Z Z Z Z Z Z Z Z Z Z Z P Q L B M n b v v v b M B Z Z C C Z Z Z Z Z Z Z Z Z Z Z Z Z Z Z Z Z Z Z Z Z Z ",
"Z Z Z Z Z Z Z Z Z H t.x.s.E Z Z A D F G F C N n v :.a.) 7 < - & % % % * ; > 1 2 1 7 i v N Z Z Z Z Z Z Z Z Z Z Z Z Z Z Z Z Z Z Z ",
"Z Z Z Z Z Z Z Z Z Z H I J Z Z A G ' ] X._ k 4 - = ..0.V .                             X - u x V Z Z Z Z Z Z Z Z Z Z Z Z Z Z Z Z ",
"Z Z Z Z Z Z Z Z Z Z Z Z Z Z Z I -.6.' _ O.H 4 . . o # O                                     O 4 k N Z Z Z Z Z Z Z Z Z Z Z Z Z Z ",
"Z Z Z Z Z Z Z Z Z Z Z Z Z Z C ) 3.) 3 < h ] J O                                                 . # y m Z Z Z Z Z Z Z Z Z Z Z Z ",
"Z Z Z Z Z Z Z Z Z Z Z Z N j 9 G $.N # O 1 } ' %                                                       ; x Z Z Z Z Z Z Z Z Z Z Z ",
"Z Z Z Z Z Z Z Z Z Z Z m e # + e @.X.b V | ;.F #                                                         % x Z Z Z Z Z Z Z Z Z Z ",
"Z Z Z Z Z Z Z Z Z Z N 8 o   . # L *.-.=.&.R * .                                                           = n Z Z Z Z Z Z Z Z Z ",
"Z Z Z Z Z Z Z Z Z B r o       . = z R H i % . o = - O                                                       < N Z Z Z Z Z Z Z Z ",
"Z Z Z Z Z Z Z Z C k @             . o o .     7 3.2.e                                                         d Z Z Z Z Z Z Z Z ",
"Z Z Z Z Z Z Z Z B r .     .                   0 0.0.p                                                         = N Z Z Z Z Z Z Z ",
"Z Z Z Z Z Z Z Z B 0 .     .                   & g h >                                                         . f Z Z Z Z Z Z Z ",
"Z Z Z Z Z Z Z Z C a X                                                                                           8 C Z Z Z Z Z Z ",
"Z Z Z Z Z Z Z Z Z l O                                                                                           6 C Z Z Z Z Z Z ",
"Z Z Z Z Z Z Z Z Z v %                                                                                         X p Z Z Z Z Z Z Z ",
"Z Z Z Z Z Z Z Z Z N r o                                                                                     o 5 M Z Z Z Z Z Z Z ",
"Z Z Z Z Z Z Z Z Z Z M 0 .                                                                                   q N Z Z Z Z Z Z Z Z ",
"Z Z Z Z Z Z Z Z Z Z Z m 6                                                                               X 0 M Z Z Z Z Z Z Z Z Z ",
"Z Z Z Z Z Z Z Z Z Z Z Z M i O                                                                         & p N Z Z Z Z Z Z Z Z Z Z ",
"Z Z Z Z Z Z Z Z Z Z Z Z Z C b w O                                                                 # r n C Z Z Z Z Z Z Z Z Z Z Z ",
"Z Z Z Z Z Z Z Z Z Z Z Z Z Z Z C m u % .                                                     . $ t n C Z Z Z Z Z Z Z Z Z Z Z Z Z ",
"Z Z Z Z Z Z Z Z Z Z Z Z Z Z Z Z Z Z N l 0 - @ o .                               . . . o # < p m C Z Z Z Z Z Z Z Z Z Z Z Z Z Z Z ",
"Z Z Z Z Z Z Z Z Z Z Z Z Z Z Z Z Z Z Z Z C N b h q ; # # & & # # % & - : , 1 1 1 1 4 q s v V Z Z Z Z Z Z Z Z Z Z Z Z Z Z Z Z Z Z ",
"Z Z Z Z Z Z Z Z Z Z Z Z Z Z Z Z Z Z Z Z Z Z Z Z C m c c N C Z C C Z Z C C C Z Z Z Z Z Z Z Z Z Z Z Z Z Z Z Z Z Z Z Z Z Z Z Z Z Z ",
"Z Z Z Z Z Z Z Z Z Z Z Z Z Z Z Z Z Z Z Z Z Z Z Z Z Z Z Z Z Z Z Z Z Z Z Z Z Z Z Z Z Z Z Z Z Z Z Z Z Z Z Z Z Z Z Z Z Z Z Z Z Z Z Z ",
"Z Z Z Z Z Z Z Z Z Z Z Z Z Z Z Z Z Z Z Z Z Z Z Z Z Z Z Z Z Z Z Z Z Z Z Z Z Z Z Z Z Z Z Z Z Z Z Z Z Z Z Z Z Z Z Z Z Z Z Z Z Z Z Z ",
"Z Z Z Z Z Z Z Z Z Z Z Z Z Z Z Z Z Z Z Z Z Z Z Z Z Z Z Z Z Z Z Z Z Z Z Z Z Z Z Z Z Z Z Z Z Z Z Z Z Z Z Z Z Z Z Z Z Z Z Z Z Z Z Z ",
"Z Z Z Z Z Z Z Z Z Z Z Z Z Z Z Z Z Z Z Z Z Z Z Z Z Z Z Z Z Z Z Z Z Z Z Z Z Z Z Z Z Z Z Z Z Z Z Z Z Z Z Z Z Z Z Z Z Z Z Z Z Z Z Z ",
"Z Z Z Z Z Z Z Z Z Z Z Z Z Z Z Z Z Z Z Z Z Z Z Z Z Z Z Z Z Z Z Z Z Z Z Z Z Z Z Z Z Z Z Z Z Z Z Z Z Z Z Z Z Z Z Z Z Z Z Z Z Z Z Z ",
"Z Z Z Z Z Z Z Z Z Z Z Z Z Z Z Z Z Z Z Z Z Z Z Z Z Z Z Z Z Z Z Z Z Z Z Z Z Z Z Z Z Z Z Z Z Z Z Z Z Z Z Z Z Z Z Z Z Z Z Z Z Z Z Z ",
"Z Z Z Z Z Z Z Z Z Z Z Z Z Z Z Z Z Z Z Z Z Z Z Z Z Z Z Z Z Z Z Z Z Z Z Z Z Z Z Z Z Z Z Z Z Z Z Z Z Z Z Z Z Z Z Z Z Z Z Z Z Z Z Z ",
"Z Z Z Z Z Z Z Z Z Z Z Z Z Z Z Z Z Z Z Z Z Z Z Z Z Z Z Z Z Z Z Z Z Z Z Z Z Z Z Z Z Z Z Z Z Z Z Z Z Z Z Z Z Z Z Z Z Z Z Z Z Z Z Z ",
"Z Z Z Z Z Z Z Z Z Z Z Z Z Z Z Z Z Z Z Z Z Z Z Z Z Z Z Z Z Z Z Z Z Z Z Z Z Z Z Z Z Z Z Z Z Z Z Z Z Z Z Z Z Z Z Z Z Z Z Z Z Z Z Z ",
"Z Z Z Z Z Z Z Z Z Z Z Z Z Z Z Z Z Z Z Z Z Z Z Z Z Z Z Z Z Z Z Z Z Z Z Z Z Z Z Z Z Z Z Z Z Z Z Z Z Z Z Z Z Z Z Z Z Z Z Z Z Z Z Z ",
"Z Z Z Z Z Z Z Z Z Z Z Z Z Z Z Z Z Z Z Z Z Z Z Z Z Z Z Z Z Z Z Z Z Z Z Z Z Z Z Z Z Z Z Z Z Z Z Z Z Z Z Z Z Z Z Z Z Z Z Z Z Z Z Z ",
"Z Z Z Z Z Z Z Z Z Z Z Z Z Z Z Z Z Z Z Z Z Z Z Z Z Z Z Z Z Z Z Z Z Z Z Z Z Z Z Z Z Z Z Z Z Z Z Z Z Z Z Z Z Z Z Z Z Z Z Z Z Z Z Z ",
"Z Z Z Z Z Z Z Z Z Z Z Z Z Z Z Z Z Z Z Z Z Z Z Z Z Z Z Z Z Z Z Z Z Z Z Z Z Z Z Z Z Z Z Z Z Z Z Z Z Z Z Z Z Z Z Z Z Z Z Z Z Z Z Z ",
"Z Z Z Z Z Z Z Z Z Z Z Z Z Z Z Z Z Z Z Z Z Z Z Z Z Z Z Z Z Z Z Z Z Z Z Z Z Z Z Z Z Z Z Z Z Z Z Z Z Z Z Z Z Z Z Z Z Z Z Z Z Z Z Z ",
"Z Z Z Z Z Z Z Z Z Z Z Z Z Z Z Z Z Z Z Z Z Z Z Z Z Z Z Z Z Z Z Z Z Z Z Z Z Z Z Z Z Z Z Z Z Z Z Z Z Z Z Z Z Z Z Z Z Z Z Z Z Z Z Z ",
"Z Z Z Z Z Z Z Z Z Z Z Z Z Z Z Z Z Z Z Z Z Z Z Z Z Z Z Z Z Z Z Z Z Z Z Z Z Z Z Z Z Z Z Z Z Z Z Z Z Z Z Z Z Z Z Z Z Z Z Z Z Z Z Z ",
"Z Z Z Z Z Z Z Z Z Z Z Z Z Z Z Z Z Z Z Z Z Z Z Z Z Z Z Z Z Z Z Z Z Z Z Z Z Z Z Z Z Z Z Z Z Z Z Z Z Z Z Z Z Z Z Z Z Z Z Z Z Z Z Z ",
"Z Z Z Z Z Z Z Z Z Z Z Z Z Z Z Z Z Z Z Z Z Z Z Z Z Z Z Z Z Z Z Z Z Z Z Z Z Z Z Z Z Z Z Z Z Z Z Z Z Z Z Z Z Z Z Z Z Z Z Z Z Z Z Z ",
"Z Z Z Z Z Z Z Z Z Z Z Z Z Z Z Z Z Z Z Z Z Z Z Z Z Z Z Z Z Z Z Z Z Z Z Z Z Z Z Z Z Z Z Z Z Z Z Z Z Z Z Z Z Z Z Z Z Z Z Z Z Z Z Z ",
"Z Z Z Z Z Z Z Z Z Z Z Z Z Z Z Z Z Z Z Z Z Z Z Z Z Z Z Z Z Z Z Z Z Z Z Z Z Z Z Z Z Z Z Z Z Z Z Z Z Z Z Z Z Z Z Z Z Z Z Z Z Z Z Z ",
"Z Z Z Z Z Z Z Z Z Z Z Z Z Z Z Z Z Z Z Z Z Z Z Z Z Z Z Z Z Z Z Z Z Z Z Z Z Z Z Z Z Z Z Z Z Z Z Z Z Z Z Z Z Z Z Z Z Z Z Z Z Z S U "
};
