/* XPM */
static char *_16bde4f8a7d4ac8ffe715e4898fd9d9pRRr62OYaUuhKKE6[] = {
/* columns rows colors chars-per-pixel */
"32 32 196 2 ",
"   c None",
".  c #7B2F34",
"X  c #623336",
"o  c #673337",
"O  c #613437",
"+  c #693336",
"@  c #683337",
"#  c #6A3337",
"$  c #6B3337",
"%  c #6F3235",
"&  c #653338",
"*  c #613438",
"=  c #723235",
"-  c #703237",
";  c #733236",
":  c #723237",
">  c #753034",
",  c #7A3035",
"<  c #793236",
"1  c #7C3135",
"2  c #7F3235",
"3  c #7D3236",
"4  c #6B5759",
"5  c #745D5F",
"6  c #786163",
"7  c #7D6465",
"8  c #7F6567",
"9  c #7A6769",
"0  c #7F6768",
"q  c #7F6769",
"w  c #72686A",
"e  c #726A6C",
"r  c #736B6D",
"t  c #736C6F",
"y  c #737275",
"u  c #BE1C1E",
"i  c #812E33",
"p  c #902E33",
"a  c #952F33",
"s  c #972F33",
"d  c #922F34",
"f  c #9C2F31",
"g  c #823134",
"h  c #893034",
"j  c #A22629",
"k  c #B42122",
"l  c #BA2326",
"z  c #B0292B",
"x  c #B82B2D",
"c  c #BD2A2C",
"v  c #AA2C30",
"b  c #BB3435",
"n  c #D60909",
"m  c #D60A0A",
"M  c #DA0A0A",
"N  c #DB0C0C",
"B  c #DD0C0C",
"V  c #DE0D0D",
"C  c #DF0D0D",
"Z  c #D00E11",
"A  c #CD1111",
"S  c #CD1212",
"D  c #CF1719",
"F  c #E30F0F",
"G  c #E40F0F",
"H  c #E71111",
"J  c #EC1313",
"K  c #EE1414",
"L  c #E41919",
"P  c #F01414",
"I  c #F21515",
"U  c #F71717",
"Y  c #F11F1F",
"T  c #F51E1E",
"R  c #F81818",
"E  c #FB1B1B",
"W  c #FC1919",
"Q  c #FE1919",
"!  c #FF1A1A",
"~  c #F81C1E",
"^  c #FC1C1C",
"/  c #ED1F21",
"(  c #C9272A",
")  c #CF2629",
"_  c #C22A2B",
"`  c #D72426",
"'  c #E92122",
"]  c #AB4B4C",
"[  c #B2494B",
"{  c #83696A",
"}  c #856A6C",
"|  c #856C6D",
" . c #866D6E",
".. c #876E70",
"X. c #857172",
"o. c #847274",
"O. c #827577",
"+. c #857576",
"@. c #887375",
"#. c #8A7476",
"$. c #8A7B7E",
"%. c #777C80",
"&. c #8E7E80",
"*. c #7F8589",
"=. c #8B8587",
"-. c #848C8F",
";. c #868C8F",
":. c #8C8C8F",
">. c #908081",
",. c #968081",
"<. c #968687",
"1. c #9C8586",
"2. c #9D8B8C",
"3. c #9E8E8F",
"4. c #868E91",
"5. c #8A8F91",
"6. c #889094",
"7. c #889396",
"8. c #849499",
"9. c #87979C",
"0. c #909396",
"q. c #929698",
"w. c #95989A",
"e. c #94999C",
"r. c #979A9C",
"t. c #989A9B",
"y. c #A59797",
"u. c #A39C9D",
"i. c #AB9C9C",
"p. c #949DA1",
"a. c #9D9FA1",
"s. c #95A1A5",
"d. c #9FA2A4",
"f. c #9CA3A6",
"g. c #9DA5A8",
"h. c #97A9AE",
"j. c #9CAEB4",
"k. c #A3A6A7",
"l. c #A1ABAF",
"z. c #B2A6A7",
"x. c #A9AFB1",
"c. c #AAB2B5",
"v. c #AFB6B9",
"b. c #BCB1B1",
"n. c #B0B6B9",
"m. c #B9B9BA",
"M. c #BBC4C9",
"N. c #BBCCD2",
"B. c #BFD0D4",
"V. c #C2C2C3",
"C. c #C4C3C3",
"Z. c #C0C3C5",
"A. c #CBC6C6",
"S. c #CFC7C7",
"D. c #CACACA",
"F. c #CFC8C8",
"G. c #D4CFCF",
"H. c #C5CDD0",
"J. c #C6D2D6",
"K. c #C4D4D8",
"L. c #C6D5DA",
"P. c #CBDADF",
"I. c #D4D2D2",
"U. c #D5D5D6",
"Y. c #D9DADA",
"T. c #DDDEDE",
"R. c #CFDEE3",
"E. c #D3DFE2",
"W. c #D1DFE4",
"Q. c #D2DFE4",
"!. c #D5E2E7",
"~. c #D8E5EA",
"^. c #DDE8ED",
"/. c #E2E2E2",
"(. c #E4E2E2",
"). c #E5E6E6",
"_. c #E5E7E7",
"`. c #E0EAEE",
"'. c #E1EBEF",
"]. c #E3ECEF",
"[. c #E9E9EA",
"{. c #E6EEF2",
"}. c #E8EFF2",
"|. c #EBF1F4",
" X c #ECF2F4",
".X c gray96",
"XX c #F5F7F9",
"oX c #F6F8FA",
"OX c #F7F9FA",
"+X c #F8F8F8",
"@X c #FAFAFB",
"#X c #F9FBFC",
"$X c #FAFCFC",
"%X c #FBFCFD",
"&X c #FEFEFE",
"*X c white",
/* pixels */
"                                                                ",
"                          2 & o + * g                           ",
"                    : h ( ' ! ! ! ! / ) d :                     ",
"                + v T ! ! ! ! ! ! ! ! ! ! ^ c :                 ",
"              < Y ! ! ! ! ! ! ! ! ! ! ! ! ! ! ~ f               ",
"            s ^ ! ! U K G B n n m m B F J U ! ! ! x +           ",
"          s ! ! P B n n m n n n m n n n m n M J ! ! _ X         ",
"        2 E U B n n n n n n n n n n n n n n m m M P ! s         ",
"      : T J n n n n n n n n n n n n n n n n n n m m F E X       ",
"      v H n n n n n n n n n n n n n n n n n n n n m n F `       ",
"    : L n n n n n n n n n n m m n n n n n n n n n n n n H 2     ",
"    p m n n n n n n n n n n n A A n n n n n n n n n n n m z     ",
"    l m n n n n n n n n n b e :.0.e [ n n n n n n n n n m D o   ",
"  : A n n n n n n n n n b :.R.!.~.!.d.] n n n n n n n n m n <   ",
"  : m n n n n n n n n n r !.M.=.;.n.&X$.A n n n n n m n m m i   ",
"  > u u u u u u u u u k e.~.7.|.~.d..XC.j u u u u u u u u u .   ",
"  r l.l.l.l.l.l.l.l.j.p.g.!.w.&X}.c.).D.6.l.l.l.l.l.l.l.l.l.y   ",
"  O.~.~.~.~.~.~.~.~.~.~.y ~.c.m.V.t.&Xa.J.~.~.~.~.~.~.~.~.~.=.  ",
"  #.E.~.~.~.~.~.~.~.~.~.h.n.&X[./.&XT.4.~.~.~.~.~.~.~.~.~.~.$.  ",
"  4 H.~.~.~.~.~.~.~.~.~.R.6.r.U.Y.k.-.K.~.~.~.~.~.~.~.~.~.E. .  ",
"    u.~.~.~.~.~.~.~.~.~.~.K.j.9.8.h.N.~.~.~.~.~.~.~.~.~.~.Z.    ",
"    @.}.~.~.~.~.~.~.~.~.~.~.W.L.K.R.~.~.~.~.~.~.~.~.~.~.'.<.    ",
"    7 S.'.~.~.~.~.~.~.~.~.~.~.~.~.~.~.~.~.~.~.~.~.~.~.^.).}     ",
"      X.+X`.~.~.~.~.~.~.~.~.~.~.~.~.~.~.~.~.~.~.~.~.^.$X2.      ",
"        z.&X|.~.~.~.~.~.~.~.~.~.~.~.~.~.~.~.~.~.~.{.$XF.5       ",
"        { A.&X+X{.~.~.~.~.~.~.~.~.~.~.~.~.~.~.{.oX&X(.q         ",
"          { I.&X&X$X|.{.~.~.~.~.~.~.~.~.'.|.$X&X&X).9           ",
"            6 b.&X&X&X&X&X+XOXOXoXoXoX&X&X&X&X&XI.{             ",
"                +./.&X&X&X&X&X&X&X&X&X&X&X&X[.2.5               ",
"                  { >.A..X&X&X&X&X&X&X+XU.2.{                   ",
"                         .1.o.y.i.+.,...                        ",
"                                                                "
};
