/* XPM */
static char *bed24e4664f64501c7facf739f4b9678Rm6g2meH77gtfCTa[] = {
/* columns rows colors chars-per-pixel */
"32 32 9 1 ",
"  c None",
". c #33485D",
"X c #33495D",
"o c #33485E",
"O c #33495E",
"+ c #34485D",
"@ c #34495D",
"# c #34485E",
"$ c #34495E",
/* pixels */
"                                ",
"   $$$$$$$$$$$$$  $$$$$$$$$$$$o ",
"   o$$$$$$$$$$$$o  $$$$$$$$$$$$ ",
" $$ o$$$$$$$$$$$$o  $$$$$$$$$$$ ",
" $$$ o$$$$$$$$$$$$o  $$$$$$$$$$ ",
" $$$$ o$$$$$$$$$$$$o  $$$$$$$$$ ",
" $$$$$ o$$$$$$$$$$$$o  $$$$$$$$ ",
" $$$$$$ $$$$$$$$$$$$$o  $$$$$$$ ",
" $$$$$$$                 $$$$$$ ",
" $$$$$$$$ o$$$$$$$$$$o $  +$$$$ ",
" $$$$$$$$$ o$$$$$$$$o $$$  $$$$ ",
" $$$$$$$$$$ o$$$$$$o $$$$$  $$$ ",
" $$$$$$$$$$$ o$$$$o $$$$$$$  $$ ",
" $$$$$$$$$$$$ o$$o $$$$$$$$$  o ",
" $$$$$$$$$$$$$ oo $$$$$$$$$$$   ",
" $$$$$$$$$$$$$$  $$$$$$$$$$$$$  ",
" $$$$$$$$$$$$$o  $$$$$$$$$$$$$  ",
" $$$$$$$$$$$$o  $ $$$$$$$$$$$   ",
" $$$$$$$$$$$o  $$$ $$$$$$$$$  $ ",
" $$$$$$$$$$o  $$$$$ $$$$$$$  o$ ",
" $$$$$$$$$o  $$$$$$$ $$$$$  o$$ ",
" $$$$$$$$o  $$$$$$$$$ $$$  o$$$ ",
" $$$$$$$o  $$$$$$$$$$$ $  o$$$$ ",
" $$$$$$o  $$$$$$$$$$$$$  o$$$$$ ",
" $$$$$o  $$$$$$$$$$$$$$$ o$$$$$ ",
" $$$$o  $$$$$$$$$$$$$$$$$ o$$$$ ",
" $$$o  $$$$$$$$$$$$$$$$$$$ o$$$ ",
" $$o  $$$$$$$$$$$$$$$$$$$$$ o$$ ",
" $o  $$$$$$$$$$$$$$$$$$$$$$$ o$ ",
" o  $$$$$$$$$$$$$$$$$$$$$$$$$ $ ",
"   $$$$$$$$$$$$$$$$$$$$$$$$$$$  ",
"                                "
};
