/* XPM */
static char *d518b09939d44a3f9e8370f39bce00dbnRI4AC9EgUC1aSqn[] = {
/* columns rows colors chars-per-pixel */
"32 32 159 2 ",
"   c None",
".  c #34363A",
"X  c #3B3B3F",
"o  c #323B3D",
"O  c #4C353E",
"+  c #41353B",
"@  c #51353F",
"#  c #3D3B41",
"$  c #423E45",
"%  c #4B3E46",
"&  c #573441",
"*  c #563F4E",
"=  c #5D3442",
"-  c #583F50",
";  c #603443",
":  c #6A3445",
">  c #713447",
",  c #743349",
"<  c #364143",
"1  c #2B6D64",
"2  c #336B64",
"3  c #4A414A",
"4  c #46484C",
"5  c #4A4C4F",
"6  c #444D50",
"7  c #5D4154",
"8  c #544D56",
"9  c #5F4F58",
"0  c #435656",
"q  c #5B535C",
"w  c #604256",
"e  c #644559",
"r  c #6B475D",
"t  c #684E5E",
"y  c #624E5B",
"u  c #77475B",
"i  c #744B5D",
"p  c #6F4560",
"a  c #734562",
"s  c #754A63",
"d  c #695663",
"f  c #6B5965",
"g  c #6E5C68",
"h  c #765366",
"j  c #785261",
"k  c #775168",
"l  c #7B566B",
"z  c #725C6A",
"x  c #7B5A6E",
"c  c #5D6062",
"v  c #6D656F",
"b  c #6A6A6D",
"n  c #6C6972",
"m  c #7A6272",
"M  c #706C70",
"N  c #667276",
"B  c #89334F",
"V  c #8D3350",
"C  c #943353",
"Z  c #9C3255",
"A  c #8B4E65",
"S  c #86576A",
"D  c #815C6F",
"F  c #8D4F74",
"G  c #865671",
"H  c #8C5375",
"J  c #835A72",
"K  c #8D5F78",
"L  c #97537C",
"P  c #9B537F",
"I  c #99597F",
"U  c #856377",
"Y  c #8B657B",
"T  c #806879",
"R  c #8A697D",
"E  c #95627E",
"W  c #258377",
"Q  c #228C7F",
"!  c #9E5681",
"~  c #9E5D82",
"^  c #A65487",
"/  c #AC558B",
"(  c #A25E84",
")  c #9D6384",
"_  c #936881",
"`  c #996C85",
"'  c #967186",
"]  c #9D748B",
"[  c #9B7D90",
"{  c #A16387",
"}  c #A4628A",
"|  c #AF658F",
" . c #A2748D",
".. c #B86B96",
"X. c #A97692",
"o. c #A27991",
"O. c #AD7D98",
"+. c #AC7C96",
"@. c #B37D9B",
"#. c #C06D9C",
"$. c #CA60A2",
"%. c #C86EA2",
"&. c #D062A7",
"*. c #D363A9",
"=. c #D86BAE",
"-. c #CA71A4",
";. c #CF75A8",
":. c #D576AD",
">. c #DC7AB2",
",. c #E07CB5",
"<. c #E47EB8",
"1. c #8A8B8C",
"2. c #9F8093",
"3. c #A7869A",
"4. c #A18395",
"5. c #B5839E",
"6. c #BC85A3",
"7. c #B08DA2",
"8. c #BA8DA5",
"9. c #B491A6",
"0. c #A6A7A7",
"q. c #C084A5",
"w. c #C487A8",
"e. c #C78AAB",
"r. c #CB8BAE",
"t. c #CD8DB0",
"y. c #D18EB3",
"u. c #DC8EB9",
"i. c #C398B1",
"p. c #D492B6",
"a. c #D793B8",
"s. c #DB96BB",
"d. c #DE98BE",
"f. c #D19CB9",
"g. c #E780BB",
"h. c #EA81BD",
"j. c #CEA3BC",
"k. c #EC8CC2",
"l. c #EC94C5",
"z. c #E49CC3",
"x. c #EA9DC7",
"c. c #EE9ECA",
"v. c #D4A5C0",
"b. c #DDAFC9",
"n. c #DBAAC6",
"m. c #DEB1CB",
"M. c #EFA3CC",
"N. c #E9AECF",
"B. c #F0A5CE",
"V. c #E2B2CD",
"C. c #F2ABD2",
"Z. c #EBB3D2",
"A. c #E9B9D5",
"S. c #F5B2D6",
"D. c #F7B6D9",
"F. c #F9BDDE",
"G. c #F5C2DF",
"H. c #FAC2E1",
"J. c #FFCAE8",
/* pixels */
"                                                                ",
"                                                                ",
"                                                                ",
"                                                                ",
"          . .                                     . .           ",
"          y 5.m 3         f 3.b.V.9.g         3 d 5.x .         ",
"        O  .M.M.Z.$ %   $ V.J.H.H.J.G.z     # v.M.M.6.+         ",
"        O D z.M.M.V.$ 8 2.F.M.q.@.z.D.V.f # j.C.M.M.Y =         ",
"        @ V ] B.c.5.4.z V.B.` @.r.Y y.D.2.7.' M.B.6.A >         ",
"        = Z S t.' b.J.m M.s. .B.M.M.U M.i.J.A.R a.h Z ;         ",
"        O C C f A.G.S. .z.M.E M.M.M._ M.C.C.G.H.m B Z @         ",
"          : j n.C.M.M.y.X.M.d.M.M.M.t M.M.M.M.C.Z.h ,           ",
"          % 8.M.B.B.M.M.] w.M.M.M. .e.B.M.M.M.M.M.f.9           ",
"          m M.M.M.M.M.M.c.@.U K x t.M.M.M.M.M.M.M.M.'           ",
"          6.M.M.M.M.p.M.M.M.M.M.M.M.M.M.M.d.M.M.M.M.a.d         ",
"        m z.M.M.+.b < q z.B.M.M.M.M.M.M.b c 4 o.B.M.B.z         ",
"        J c.M.M.b 0.6 # O.B.B.C.S.B.M.e.1.n . 4 M.M.c.J         ",
"      e G <.c.M.q 1 Q 2 @.B.S.D.D.S.M.s.0 W W 8 M.c.h._ e       ",
"    H <.l <.k.l.p.v N m c.M.M.M.M.B.M.B.] N v w.c.h.h.J g.~ w   ",
"  F =.=.~ >.h.h.l.M.M.M.M.r.i A A u @.M.c.x.B.l.g.g.g.J =.=.!   ",
"  a L ^ / { k.h.g.h.x.M.B.x.s C C i l.M.M.l.k.<.h.h...P / P a   ",
"          J ;.<.h.h.h.h.k.l.u.E K y.l.k.k.h.h.h.h.>.J           ",
"            x :.h.h.h.h.h.h.<.h.<.h.h.h.<.k.h.h.>.J             ",
"              l #.h.h.h.h.<.k.h.k.<.h.h.h.<.h.%.h               ",
"              s J l #.k.<.h.h.h.h.h.h.h.h.-.G J a               ",
"          s ^ *.*.*.( k ( | %.>.>.;.| { h } $.*.*./ s           ",
"            F %.,.h.h.h.:.( G x l G ~ -.h.<.h.<.-.P r           ",
"                e 7 r e - r         7 7 e p 7 w -               ",
"                                                                ",
"                                                                ",
"                                                                ",
"                                                                "
};
