/* XPM */
static char *_9b37d7c31594698c698cfdefd4dbc05i13Tka82LQBHyfnj[] = {
/* columns rows colors chars-per-pixel */
"64 64 158 2 ",
"   c None",
".  c #000000",
"X  c #090603",
"o  c #0D0B06",
"O  c #0C0B0A",
"+  c #110D06",
"@  c #130E09",
"#  c #131007",
"$  c #151109",
"%  c #1A150D",
"&  c #1F190F",
"*  c #161514",
"=  c #191713",
"-  c #1B1812",
";  c #1E1C18",
":  c #201A0F",
">  c #231D12",
",  c #221F1A",
"<  c #272115",
"1  c #2A2216",
"2  c #24211D",
"3  c #2D2618",
"4  c #2F2819",
"5  c #302719",
"6  c #332A1C",
"7  c #392E1F",
"8  c #272623",
"9  c #282724",
"0  c #2B2823",
"q  c #342E23",
"w  c #312E2A",
"e  c #3C3323",
"r  c #33322D",
"t  c #3A342B",
"y  c #333232",
"u  c #393734",
"i  c #3C3933",
"p  c #3C3B39",
"a  c #423625",
"s  c #443927",
"d  c #423728",
"f  c #453B29",
"g  c #4B3E2A",
"h  c #453E31",
"j  c #403F3A",
"k  c #4E412D",
"l  c #50432E",
"z  c #494032",
"x  c #4B4339",
"c  c #534531",
"v  c #564933",
"b  c #5A4C35",
"n  c #574C3A",
"m  c #5C4F39",
"M  c #5E503A",
"N  c #64543B",
"B  c #69573E",
"V  c #6A593F",
"C  c #4D4C46",
"Z  c #504C44",
"A  c #514F4A",
"S  c #5D5343",
"D  c #545048",
"F  c #5A554E",
"G  c #585651",
"H  c #5E5C55",
"J  c #645643",
"K  c #6D5C41",
"L  c #655B4A",
"P  c #6C5E49",
"I  c #705F44",
"U  c #625F58",
"Y  c #6E614C",
"T  c #716147",
"R  c #74644C",
"E  c #78684F",
"W  c #696255",
"Q  c #66625A",
"!  c #6C665C",
"~  c #756751",
"^  c #7A6A53",
"/  c #7C6E5B",
"(  c #7E7057",
")  c #7E715B",
"_  c #656461",
"`  c #6D6A65",
"'  c #6F6C68",
"]  c #706C66",
"[  c #7F7766",
"{  c #757169",
"}  c #7A766E",
"|  c #7E7B74",
" . c #82745D",
".. c #837762",
"X. c #857964",
"o. c #897C66",
"O. c #837B6D",
"+. c #8A7E6A",
"@. c #827D74",
"#. c #827E78",
"$. c #8D826E",
"%. c #838077",
"&. c #8D8576",
"*. c #85817A",
"=. c #8A867D",
"-. c #8B887F",
";. c #948A7B",
":. c #988E7D",
">. c #8B8780",
",. c #8E8A82",
"<. c #928E85",
"1. c #9C9384",
"2. c #969189",
"3. c #9B968D",
"4. c #9D988D",
"5. c #9F9A92",
"6. c #9D9890",
"7. c #A19585",
"8. c #A19887",
"9. c #A0998C",
"0. c #A39989",
"q. c #A39D91",
"w. c #A29C90",
"e. c #A59E93",
"r. c #A39E96",
"t. c #A39E95",
"y. c #A89F90",
"u. c #A6A096",
"i. c #A5A096",
"p. c #ABA193",
"a. c #A9A193",
"s. c #A6A199",
"d. c #A7A299",
"f. c #A7A29A",
"g. c #AAA59A",
"h. c #A9A59C",
"j. c #AAA59C",
"k. c #ABA79C",
"l. c #ABA79E",
"z. c #ABA59A",
"x. c #ADA99E",
"c. c #AEA99F",
"v. c #AEAA9F",
"b. c #ADA99E",
"n. c #B1AB9D",
"m. c #AEAAA0",
"M. c #AFABA1",
"N. c #AFABA1",
"B. c #B0ACA2",
"V. c #B0ACA2",
"C. c #B5B1A7",
"Z. c #B7B3AD",
"A. c #B7B3A9",
"S. c #B8B5B0",
"D. c #C3BCB2",
"F. c #C3BFBA",
"G. c #C4BFB9",
"H. c #D0CCC7",
/* pixels */
"                                                                                                                                ",
"                                                                                                                                ",
"                                                                                                                                ",
"                                                                                                                                ",
"                                                                                                                                ",
"                                                                                                                                ",
"                                                                                                                                ",
"                                                                                                                                ",
"                                                                                                                                ",
"                                                                                                                                ",
"                                                                                                                                ",
"                                                                                                                                ",
"                                                                                                                                ",
"                                                . . . . . . . . . . . . . . . .                                                 ",
"                                              . . . . . . . . . . . . . . . . . . .                                             ",
"                                        . . . . . . . o + + o + + $ @ $ o . . . . . . .                                         ",
"                                        . . . . . + 6 c B K K K K V B B M g 1 $ . . . . .                                       ",
"                                    . . . . . 7 k v B K K K K K K K K K K B v l k 1 . . . . . .                                 ",
"                                  . . . . X l K K K K K K K K K K K K K K K K K K b 6 X . . . . .                               ",
"                                . . . . $ c B K K K K K K K K K K K K K K K K K K K b k 3 . . . . .                             ",
"                              . . . . % c K K K K K K K K K K K K I V I K K K K K K K K I l . . . . .                           ",
"                            . . . . : v B K K K K K K K K K K K K K V V K K K K K K K K K V v @ . . . .                         ",
"                            . . . > b I I V K K K K K K K K K K T V I V K K K K K K K K K K K m 3 . . .                         ",
"                        . . . . 3 m V V V V 3.v.4.K K K K K K K V V T V K K T 1.B.B.B.T K K K K b 3 . . .                       ",
"                    . . . . . > b I V V ) w.M.M.B.m.<./ K K K K I V V V V T 0.B.B.B.B.M.X.T K K K g + . . . .                   ",
"            . . . . . . . X < g B V T 7.m.M.M.M.B.B.B.n.o.K K K I V V V  .0.n.B.B.B.B.B.M.1.K K K c % . . . . . . .             ",
"            . . . . . X # 3 g N V K ^ V.M.M.,.| #.,.w.h.p.T I V V I V V h.h.<.@.#.=.2.s.M.v.T K K m 6 % $ $ X . . . .           ",
"        . . . . 1 s g g g c N K K K K I T ~ e @ @ 1 f m V V V I I V V I K R e + @ & 7 l N K K K K V m c b c f > . . . .         ",
"        . . . @ c K K K K K K K K K B K  .7.} O . . : e m V K K K K K I  .:.{ O . . O 6 c B K K I V V I K K K k + . . .         ",
"        . . . 9 %.M.M.M.M.M.z.R K B v L p.D.H._ . . . & g N K K K K K Y p.D.G._ X . . $ e M B K V I 8.n.v.M.M.@.8 . . .         ",
"        . . . . p } *.2.s.M.B.;.K N k d >.F.S.' O . . . 6 N V K K K B n ,.F.Z.' $ . . X 6 v B K K q.V.M.s.2.@.A O . . .         ",
"          . . . . X 8 A *.h.B./ K N g > * y p 8 . . . X 6 P I K K K K f 2 w p 9 . . . . 6 v K K K M.B.<.G , - X . . .           ",
"            . . . . . = ' t.B.E V B l 3 . . . . . . . $ f T K K K K K l : . . . . . . $ a m K K K 1.V.| , . . . . .             ",
"                  . . . q / E K V V N g % . . . . . X 6 v I K K K K K m a % . . . . @ 6 v B K K K I T k X . . .                 ",
"                    . . 6 v V K T V K M e > + X . + 7 g v R ../ m c c v v s 1 $ $ < e z B K K K K K K k X . o                   ",
"                    . . 1 c B V T V K V M m l k f k v l e Q g.;.t % > e c m c k k m ) 1.a.0.:.o. .R T k . . .                   ",
"                    . . < l K ) $.:.y.y.z.z.z.&.S s s 6 @ i *.` $ . . X 6 s g c $.v.p.$. .R T V K K K l . .                     ",
"                    . . < c B T V I I V K T [ 9.i.! 1 + . . * * . . . . . . * *.<.Y K K V T E  .^ ^ R l . .                     ",
"                    . . < c V K I E  .$.) n 3 # F 6.} 0 $ X . . . . X % 0 u @.G o < L 1.n.n.n.C.n.8.0.%.. .                     ",
"                    . . % k K o.8.y.y.y.z.B.M.2.' *.>.*.} C X . . X e | %.3.=.i j 4.z.&. .R R R I K B d . .                     ",
"                    . . X e K ^ V I T b e & t <.A.C.M.B.B.<.A = % q =.M.M.M.B.M.<.; . > v K K K K K l & . .                     ",
"                    . . . 1 N K I V V c 1 % H z.A.B.B.B.M.M.,.@.| <.m.M.B.B.B.A.M.t.>.{ L K K K K B 6 X . .                     ",
"                    . . . % l B V I V c x t.a.t.>.*.*.3.B.B.B.B.M.M.M.m.2.*.@.*.<.] Q =.B.n.X.K K N & . . .                     ",
"                      . . X e N I V K o.' w X = 2 = 2 U 3.M.B.B.B.M.M.2.H r = $ % + @ 1 B :.n.o.K v @ . .                       ",
"                        . . % k K K @ . . . . . . . . X F =.h.M.B.M.<.D @ . . . . . . & N K E 8.^ 6 . . X                       ",
"                        . . . 3 b . . .     s 3 # . . . X p @.M.M.<.h $ . . . . + % . . % B K T J X . .                         ",
"                  .     . . . @ X . .           a 3 X . . X 6 S ! h > . . $ 7         . . % B m > . . .                         ",
"                  . . . . . . . . .                   o . . . . X o . . X               . . X e X . .                           ",
"                    . . . . . . .                       1 . . . . . . $                   . . . . . . . . .                     ",
"                            .                             g > o X + 1                       o . . . . . .                       ",
"                                                                                                . . .                           ",
"                                                                                                                                ",
"                                                                                                                                ",
"                                                                                                                                ",
"                                                                                                                                ",
"                                                                                                                                ",
"                                                                                                                                ",
"                                                                                                                                ",
"                                                                                                                                ",
"                                                                                                                                ",
"                                                                                                                                ",
"                                                                                                                                ",
"                                                                                                                                ",
"                                                                                                                                "
};
