/* XPM */
static char *_4ac0e46be8f4d15bc864af1ccfbcae5cIcCq1sCTxXEFQYA[] = {
/* columns rows colors chars-per-pixel */
"64 64 132 2 ",
"   c None",
".  c #000000",
"X  c #090603",
"o  c #0D0A05",
"O  c #0C0B0A",
"+  c #120D06",
"@  c #130E08",
"#  c #151109",
"$  c #1A150C",
"%  c #1E180F",
"&  c #161514",
"*  c #181713",
"=  c #1C1913",
"-  c #1E1C18",
";  c #201A0F",
":  c #241D12",
">  c #221F1A",
",  c #272115",
"<  c #2A2216",
"1  c #24211C",
"2  c #2D2618",
"3  c #2F2819",
"4  c #302719",
"5  c #332A1C",
"6  c #392E1F",
"7  c #272522",
"8  c #292724",
"9  c #2B2823",
"0  c #342D23",
"q  c #3C3222",
"w  c #33322D",
"e  c #3A342B",
"r  c #333232",
"t  c #393734",
"y  c #3C3933",
"u  c #3C3B39",
"i  c #423625",
"p  c #443927",
"a  c #423728",
"s  c #453B29",
"d  c #4A3E2A",
"f  c #453E31",
"g  c #403F3A",
"h  c #4E412D",
"j  c #50432E",
"k  c #494032",
"l  c #4B4339",
"z  c #534531",
"x  c #574933",
"c  c #5B4C35",
"v  c #574C3A",
"b  c #5C4F39",
"n  c #5E5039",
"m  c #65553B",
"M  c #69573E",
"N  c #6A593F",
"B  c #4D4C46",
"V  c #504C44",
"C  c #514F4A",
"Z  c #5F5442",
"A  c #545048",
"S  c #5C554B",
"D  c #585651",
"F  c #5E5C55",
"G  c #645643",
"H  c #6D5C41",
"J  c #655B4A",
"K  c #6C5E49",
"L  c #705F44",
"P  c #625F58",
"I  c #6E614C",
"U  c #716147",
"Y  c #74644C",
"T  c #78684F",
"R  c #696255",
"E  c #66625A",
"W  c #6C665C",
"Q  c #756751",
"!  c #7A6A53",
"~  c #7C6E5B",
"^  c #7E7057",
"/  c #7E715B",
"(  c #656461",
")  c #6D6A65",
"_  c #6F6C68",
"`  c #716D65",
"'  c #7F7766",
"]  c #757169",
"[  c #7A766E",
"{  c #7E7B74",
"}  c #82745D",
"|  c #837762",
" . c #857964",
".. c #897C66",
"X. c #8B7E6A",
"o. c #827D74",
"O. c #827E78",
"+. c #8D826E",
"@. c #838077",
"#. c #8D8475",
"$. c #85817A",
"%. c #8A867D",
"&. c #8B887F",
"*. c #948A7B",
"=. c #988E7D",
"-. c #8B8780",
";. c #8E8A82",
":. c #928E85",
">. c #9C9384",
",. c #969189",
"<. c #9B968D",
"1. c #9D988D",
"2. c #9E9991",
"3. c #A19585",
"4. c #A19887",
"5. c #A2998A",
"6. c #A39E93",
"7. c #A89F90",
"8. c #A6A096",
"9. c #AAA193",
"0. c #A7A299",
"q. c #ABA59B",
"w. c #ADA99E",
"e. c #B1AB9D",
"r. c #AFABA1",
"t. c #B0ACA2",
"y. c #B5B1A7",
"u. c #B7B3AA",
"i. c #B8B5B0",
"p. c #C3BCB2",
"a. c #C3BFBA",
"s. c #D0CCC7",
/* pixels */
"                                                                                                                                ",
"                                                                                                                                ",
"                                                                                                                                ",
"                                                                                                                                ",
"                                                . . . . . . . . . . . . . . . .                                                 ",
"                                              . . . . . . . . . . . . . . . . . . .                                             ",
"                                        . . . . . . . + @ o o @ @ # @ # o . . . . . . .                                         ",
"                                        . . . . . @ 5 x M H H N H M M M m d , # . . . . .                                       ",
"                                    . . . . . 6 j x M H H H H H H H H H N M x j h < . . . . . .                                 ",
"                                  . . . . X h H H H H H H H H H H H H H L N N L N c 5 X . . . . .                               ",
"                                . . . . # z M H H H H H H H H H H H H H N L U N N N c j 2 . . . . .                             ",
"                              . . . . $ z H H H H H H H H H H H H H H H L N N N L L N N H j . . . . .                           ",
"                            . . . . ; x M H H H H H H H H H H H H H N N U N N U N N H H H H x # . . . .                         ",
"                            . . . : x H H H H H H H H H H H H H H H L N U N N L N U H H H H H c 2 . . .                         ",
"                        . . . . 2 c H H H H 1.r.5.H M H H H H H H L N L N L U =.e.t.t.U H H H H c 2 . . .                       ",
"                    . . . . . : x H H H ^ 6.r.t.r.q.=.~ H H H H L N N N N U 7.t.y.t.t.e. .U H H N h @ . . . .                   ",
"            . . . . . . . X , d M H U >.r.r.r.t.t.t.t.r. .H H H H H M M Q 6.t.t.t.t.t.t.e.=.U N H j $ . . . . . . .             ",
"            . . . . . X # , d m H N ! r.t.w.;.{ O.:.2.q.6.U H H H H H H q.q.:.O.$.&.,.0.t.e.U L H n 5 % # # X . . . .           ",
"        . . . . , s d s d x m N H L N U U Q e @ # , s b H H H H H H H H H Y q @ @ % 5 h M H L N N M x z x z d : . . . .         ",
"        . . . @ z H H H H H N H H N M H } 3.[ O . . % q v H H H H H H H } =.] O . . o 5 x M N N L L N L H H H h @ . . .         ",
"        . . . 7 $.r.r.r.r.t.q.Y H M v J 9.p.s.( . . . % s m N N H H H K 7.p.a.( X . . # q n N L N L 1.w.w.t.t.O.7 . . .         ",
"        . . . . u ] $.,.0.r.t.*.H m d a -.a.i._ O . . X 6 m L L H H H v :.a.u._ # . . X 4 x N N L 5.t.w.8.,.{ V O . . .         ",
"          . . . . O 8 C $.q.t.~ H m d : * r t 7 . . . X 5 K L N H H H i 1 r u 8 . . . . 4 c N N H w.t.,.D 1 * O . . .           ",
"            . . . . . & ) 6.r.Y H m z 5 . . . . . . . # p U L N H H H h = . . . . . . $ i m N N H >.t.{ > . . . . .             ",
"                  . . . q ~ Q H H N m d $ . . . . . X 5 x K H N H H H m q % . . . . # 5 x M N U H H U h X . . .                 ",
"                    . . 5 c H H H H H c q , @ . . @ 5 d c I | } b z z x z s < # # : 5 j M H N U H H H h . . o                   ",
"                    . . , z M H L N H N m c h h s h x h q R q.*.e & ; q z c z d h n / 3.8.7.*...} Y U h . . X                   ",
"                    . . , j H ^ +.>.5.9.9.q.q.#.Z s p 5 # r $.) # . . X 5 p d z +.e.9.+.^ Y U H H H H h . .                     ",
"                    . . , z N U N U N L L U ' 5.8.W 2 o . . & & . . . . . . & $.,.I H N N U T ^ ~ ! T h . .                     ",
"                    . . : z H H U T } ../ c 2 # S 1.[ 9 # X . . . . X $ 9 t O.D o - J ,.e.e.e.y.e.3.5.X.. .                     ",
"                    . . % h H ..4.9.9.9.q.e.w.,._ $.;.$.{ B X . . X 6 { $.<.&.y l <.q.#.} T Y Y U H G p . .                     ",
"                    . . X q K T N N L c q $ y :.u.y.r.r.r.:.B $ # 0 %.t.r.t.t.w.:.- . : x H H H H H z % . .                     ",
"                    . . . , m H H H H z < $ F q.u.t.t.t.r.r.;.o.@.:.w.r.t.t.t.u.w.6.&.] J H H H H M 5 X . .                     ",
"                    . . . $ h M H H H z l 6.6.6.-.O.-.<.t.t.t.t.t.r.r.w.,.$.{ $.:.` E %.e.e. .H H m $ . . .                     ",
"                      . . X 6 m H H H #.t.` = 7 8 * > P <.r.t.t.t.r.r.,.F w = = < $ # < G =.e...H c @ . .                       ",
"                        . . % h H H X.9.G 5 # X . . . X D -.q.r.t.r.,.A # . . . X ; < h m H T 4.~ 5 . . X                       ",
"                        . . . 2 m Y >.T m x p 2 # . . . X f o.r.w.:.d # . . X : q d c M N H H U m X . .                         ",
"                        . . . @ z Y ! H H H m z i 2 ; o . X 0 G W k = o O : i c M N N N H H H c = . . .                         ",
"                          . . . q H H H H H H M m c z i < + X + ; ; $ # q c M H L N N L H H H d X . .                           ",
"                            . . o j m H H H H H H H H M j 5 ; # # $ < h m H H H N N L N L M x 2 . .                             ",
"                            . . . , x M H H H H L N L N N c j h h x c M N L N L N N L N H c 2 . . .                             ",
"                            . . . o d H H H H H N N N L N N N L N N L N L N L N N L N L M d # . . .                             ",
"                              . . . s N H H H H N U L N L N L N N N N L N L N L L N L N M i o . .                               ",
"                                . . p H H H H H N L N N N L N L L L N N N U N N N L N L M i X . .                               ",
"                                . . p N H H H H N L N L N L U N N L H H H H L N N L H H N i o . .                               ",
"                                . . i H H H n j j c N N L N N N m j h c M H N L L N N N N i X .                                 ",
"                                . . q H H x 5 % $ 5 x N N L N n 5 @ # 4 c N H N N H H N m 5 X .                                 ",
"                    . .         . . i m x 5 o . . X 6 c N N b 6 X . . X 5 c N L L N m j ; X X .                                 ",
"                    . . . .   . . . q h 4 X . . . . X q n c 6 X . . . . X 2 x H H c 5 . . . . . .                               ",
"                    . . . . . . . . : , . . . . . . . @ 6 q o . . . . . . . 5 z j 2 . . . . . . . .                             ",
"                      . . . . . . . . . . .       . . . X X . .       . . . X $ @ . . . . . . . . . .                           ",
"                        . . . . . . . . .           . . . . .           . . . . . . . .       . . . . . . . .                   ",
"                              . . . . .               . . .               . . . . . .             . . . . .                     ",
"                                  .                     . .                 . . . .                   . . .                     ",
"                                                                                                                                ",
"                                                                                                                                ",
"                                                                                                                                ",
"                                                                                                                                ",
"                                                                                                                                ",
"                                                                                                                                ",
"                                                                                                                                ",
"                                                                                                                                ",
"                                                                                                                                ",
"                                                                                                                                "
};
