/* XPM */
static char *_356b926a7a749da8cd49de6ad3e2da5p34ehssyYSY44bhZ[] = {
/* columns rows colors chars-per-pixel */
"64 64 228 2 ",
"   c None",
".  c black",
"X  c #000101",
"o  c #010101",
"O  c #010102",
"+  c #020202",
"@  c gray1",
"#  c #030404",
"$  c gray2",
"%  c #050506",
"&  c #070707",
"*  c #080A0A",
"=  c #090B0B",
"-  c gray4",
";  c #0A0A0B",
":  c #0C0C0D",
">  c #0D0D0F",
",  c #0F1112",
"<  c gray7",
"1  c #121314",
"2  c #161618",
"3  c #18181A",
"4  c #1E1E20",
"5  c #1E2021",
"6  c #212222",
"7  c #282A2C",
"8  c #2A2B2D",
"9  c #303234",
"0  c #37383C",
"q  c #373B3D",
"w  c #38393D",
"e  c #393B3E",
"r  c #3A3C3F",
"t  c #3B3E40",
"y  c #3D3F42",
"u  c #3D4043",
"i  c #414447",
"p  c #424549",
"a  c #43464A",
"s  c #454648",
"d  c #4A4C50",
"f  c #4C4F53",
"g  c #4F5257",
"h  c #505358",
"j  c #525559",
"k  c #53565B",
"l  c #5E6165",
"z  c #606468",
"x  c #636669",
"c  c #64676C",
"v  c #65696E",
"b  c #666A6F",
"n  c #686B71",
"m  c #696C72",
"M  c #6A6E73",
"N  c #6B7074",
"B  c #6E7176",
"V  c #6D7277",
"C  c #6F7479",
"Z  c #6F747A",
"A  c #70757A",
"S  c #72757A",
"D  c #72777C",
"F  c #73787D",
"G  c #74797E",
"H  c #757A7F",
"J  c gray50",
"K  c #757A80",
"L  c #757B80",
"P  c #777B80",
"I  c #777B81",
"U  c #777D82",
"Y  c #787C81",
"T  c #787C82",
"R  c #797D82",
"E  c #787E83",
"W  c #7A7E83",
"Q  c #7B7E83",
"!  c #797F84",
"~  c #7A7E84",
"^  c #7B7F84",
"/  c #7B7F85",
"(  c #7A8085",
")  c #7A8086",
"_  c #7B8186",
"`  c #7C8085",
"'  c #7D8185",
"]  c #7C8086",
"[  c #7D8186",
"{  c #7F8387",
"}  c #7E8288",
"|  c #7F8388",
" . c #7E848A",
".. c #7F858B",
"X. c #808488",
"o. c #818489",
"O. c #81858B",
"+. c #82858A",
"@. c #82868A",
"#. c #83878B",
"$. c #80868D",
"%. c #82868D",
"&. c #81878E",
"*. c #84878C",
"=. c #85898D",
"-. c #898A8E",
";. c #888B8F",
":. c #828990",
">. c #848A91",
",. c #848A92",
"<. c #848B92",
"1. c #858B93",
"2. c #878C94",
"3. c #878E95",
"4. c #888C90",
"5. c #888D95",
"6. c #8B8F94",
"7. c #898E96",
"8. c #888F97",
"9. c #899096",
"0. c #8D9095",
"q. c #8C9096",
"w. c #8E9196",
"e. c #8A9199",
"r. c #8B929A",
"t. c #8C939B",
"y. c #8E959D",
"u. c #8E969E",
"i. c #8F969E",
"p. c #8F969F",
"a. c #8F979F",
"s. c gray57",
"d. c #909297",
"f. c #919398",
"g. c #91959A",
"h. c #94969B",
"j. c #91969D",
"k. c #90979E",
"l. c #90979F",
"z. c #91989F",
"x. c #95999D",
"c. c #9D9D9D",
"v. c #9F9F9F",
"b. c #9198A1",
"n. c #9199A1",
"m. c #9299A2",
"M. c #929AA2",
"N. c #929AA3",
"B. c #939BA3",
"V. c #949BA1",
"C. c #939BA4",
"Z. c #949BA4",
"A. c #949CA4",
"S. c #9A9CA0",
"D. c #9DA1A5",
"F. c #A2A2A2",
"G. c #A6A8A9",
"H. c #A6A8AC",
"J. c #A6A9AC",
"K. c #A7AAAD",
"L. c #A7AAAE",
"P. c #AFAFAF",
"I. c #ACAEB2",
"U. c #AAAFB4",
"Y. c #AEB0B3",
"T. c #AFB1B5",
"R. c #B3B5B9",
"E. c #B5B7BB",
"W. c #B5B9BC",
"Q. c #B8BABD",
"!. c #BABCBF",
"~. c #BBBCC0",
"^. c #BDBEC2",
"/. c #BEBFC3",
"(. c #C1C2C4",
"). c #C1C2C5",
"_. c #C6C6C6",
"`. c #C5C6C8",
"'. c #C4C6C9",
"]. c #C6C7CA",
"[. c #C9CACC",
"{. c #CACBCE",
"}. c #CBCCCE",
"|. c #CCCDCF",
" X c #CDCED0",
".X c #CECFD1",
"XX c #D2D2D3",
"oX c #D1D2D4",
"OX c #D2D3D5",
"+X c #D2D5D7",
"@X c gray83",
"#X c #D4D5D6",
"$X c #D5D6D7",
"%X c #D2D6D9",
"&X c #D6D7D8",
"*X c #D7D8D9",
"=X c #D8D9DA",
"-X c #D9DADB",
";X c #D9DADC",
":X c #DADBDC",
">X c #DBDCDE",
",X c #DEDFE0",
"<X c #DEDFE1",
"1X c #E0E1E2",
"2X c #E0E2E3",
"3X c #E1E3E4",
"4X c #E4E4E5",
"5X c #E4E6E7",
"6X c #E5E7E8",
"7X c #E6E8EA",
"8X c #E7E9EA",
"9X c #E9EBEB",
"0X c #E9EBEC",
"qX c #EBEBEC",
"wX c #EAECEC",
"eX c #EDEDEE",
"rX c #EFEFF1",
"tX c #F0F0F1",
"yX c #F2F3F3",
"uX c #F5F5F6",
"iX c #F6F6F6",
"pX c gray97",
"aX c #F7F7F8",
"sX c #F8F8F8",
"dX c #F9F9F9",
"fX c gray98",
"gX c #FDFDFD",
"hX c #FEFEFE",
/* pixels */
"                                                                                                                                ",
"                                                                                                                                ",
"                                                                                                                                ",
"                                                                                                                                ",
"                                                                                                                                ",
"                                                                                                                                ",
"                                                                                                                                ",
"                                                                                                                                ",
"                                                                                                                                ",
"                                                                                                                                ",
"                                                                                                                                ",
"                                                                                                                                ",
"                                                                                                                                ",
"                                                                                                                                ",
"                                                                                                                                ",
"                                                                                                                                ",
"                                                                                                                                ",
"                                                        X X X X X X X X                                                         ",
"                                                    X X X X - 4 3 @ X X X X                                                     ",
"                                                  X X 5 C D D F F F v u < X & F.                                                ",
"                                                X X y F F F F F F F F F F M 6 c.$                                               ",
"                                            X X X 0 D D _ e.m.2.F F F F F F 6.G.v.X                                             ",
"                                          X X X h F F / u.N.e.N.6.F F 2.Y F c.#XqX- X                                           ",
"                                          X X j F F F  .m.U F ..u.F F R F F T.[.dXr X X                                         ",
"                                        X X z F F / F / m.R F 9.e.L..X{.{.|.oX6.=XY.9 X X                                       ",
"                                      X X g D F { m.K F e.Z.m.m.R / ;.oX5X*X(.{ g.2X|._.s.<                                     ",
"                                    X X k F F F | L.F F F _  .K F F F F F R =X=X'.'..XE.s X X                                   ",
"                                  X X w F F F F 6.&XR F F F F F F F F F F F F =XE.R F F v X X                                   ",
"                                  X X B F F F F f.2XR F F F F F F F F F F F F *X).j.R F F i X X                                 ",
"                                X X d F F { R eXaXhXyX*X{ F F F F F F F F F F L.W.*.K F F D > X                                 ",
"                                X X D F F '.%.F R <Xo.R F F F F F F F F F F F R x.F F F F F n X X                               ",
"                              X X w F F j.+X9.1._ ~.o.6.F F F F F :.m.R F F F F F Q F F F F F w X X                             ",
"                              X X N F R ,X:XR 2.Y d.0.qX{ F F F F / 2.K F F F F K o.F F F o.F N X X                             ",
"                              X 7 F F R 0X8Xm.%.D { d.yX*.F F F F F F F F F F F F F F F R .X{ F 7 X X                           ",
"                            X X l / u._ 9X3X~.R F Y wXhX>X=.F F F F F F F F F F F F F F F #Xo.F n X X                           ",
"                            X X v R m.}.4XW.=X6X^.X.o.3XX.F F F F F F F F F F F F F F 0.2XdXoXo.n X X                           ",
"                            X X ;.|.5XdX#XD.{.G.F K R F F F F F F F F F F F F 1.u.t. .K j.6X6.D g X                             ",
"                            X X r o.L.^.#XuX%XI.h.F K F F F F F F F F F F F t.z.2.t.A.R 1.U.{ B X X                             ",
"                              X X d F { tXaXV.K F F Y F F  .R F F F F F F U C.| F F N.:.F F A - X X                             ",
"                              - X X > x qXpX=.F F F F F F F F F F F F F F K N. .U 2.A.%.D c : X X                               ",
"                                  X X X #XXXS D D F F F F F F F F F F F F F %.N.u.m.z.Z s X X X                                 ",
"                                    < $ P.J X X 2 p F F F F F D F F F F F D F _ 2.:.F X X X X                                   ",
"                                          @ X X X X X X X X X X X X X X X X X X X X X X X                                       ",
"                                                                                                                                ",
"                                                                                                                                ",
"                                                                                                                                ",
"                                                                                                                                ",
"                                                                                                                                ",
"                                                                                                                                ",
"                                                                                                                                ",
"                                                                                                                                ",
"                                                                                                                                ",
"                                                                                                                                ",
"                                                                                                                                ",
"                                                                                                                                ",
"                                                                                                                                ",
"                                                                                                                                ",
"                                                                                                                                ",
"                                                                                                                                ",
"                                                                                                                                ",
"                                                                                                                                ",
"                                                                                                                                ",
"                                                                                                                                ",
"                                                                                                                                "
};
