/* XPM */
static char *_d91c179bf2742c282eb92d8b1482591LUKpBdjz6qviq4Xs[] = {
/* columns rows colors chars-per-pixel */
"32 32 2 1 ",
"  c None",
". c black",
/* pixels */
"                                ",
"                                ",
"                                ",
"    ........................    ",
"   ..                      .    ",
"   . .                    ..    ",
"   .  .                  . .    ",
"   .   .                .  .    ",
"   .    .              .   .    ",
"   .     .            .    .    ",
"   .      .          .     .    ",
"   .       .        .      .    ",
"   .        .      .       .    ",
"   .         .    .        .    ",
"   .          .  .         .    ",
"   .           ..          .    ",
"   .           ..          .    ",
"   .          .  .         .    ",
"   .         .    .        .    ",
"   .        .      .       .    ",
"   .       .        .      .    ",
"   .      .          .     .    ",
"   .     .            .    .    ",
"   .    .              .   .    ",
"   .   .                .  .    ",
"   .  .                  . .    ",
"   . .                    ..    ",
"   .........................    ",
"                                ",
"                                ",
"                                ",
"                                "
};
