/* XPM */
static char *e8bc755009e0483e80e73c4f4fb7d37fasLDErEYU0re7IxR[] = {
/* columns rows colors chars-per-pixel */
"32 32 2 1 ",
"  c None",
". c red",
/* pixels */
"                                ",
"                                ",
"               ..               ",
"           ...     ..           ",
"         ..           .         ",
"        .              ..       ",
"      ..                 .      ",
"      ..                  .     ",
"     .  .                 .     ",
"    .    .                 .    ",
"    .     .                 .   ",
"   .       .                .   ",
"   .        .               .   ",
"   .         .               .  ",
"  .           .              .  ",
"  .            .             .  ",
"  .             .            .  ",
"  .              .           .  ",
"  .               .          .  ",
"   .               .        .   ",
"   .                .       .   ",
"   .                 .      .   ",
"    .                 .    .    ",
"    .                  .   .    ",
"     .                  . .     ",
"      .                  .      ",
"       .                .       ",
"        ..            ..        ",
"          ...       ..          ",
"             ......             ",
"                                ",
"                                "
};
