/* XPM */
static char *df64c7a785f048f3a429bda64cea6b68ChHN2bruHVKOrhHc[] = {
/* columns rows colors chars-per-pixel */
"32 32 82 1 ",
"  c #3555EC",
". c #3B5AEC",
"X c #4361ED",
"o c #4864ED",
"O c #4B67ED",
"+ c #4F69EE",
"@ c #526CEE",
"# c #546EEE",
"$ c #5872EF",
"% c #5B74EF",
"& c #5D76EF",
"* c #5F77F0",
"= c #6078F0",
"- c #6178F0",
"; c #647BF0",
": c #657CF0",
"> c #677EF0",
", c #6A80F1",
"< c #6C81F1",
"1 c #7187F2",
"2 c #768AF2",
"3 c #788BF3",
"4 c #798DF3",
"5 c #7C8FF3",
"6 c #8293F3",
"7 c #8194F3",
"8 c #8596F3",
"9 c #8798F3",
"0 c #8899F3",
"q c #8899F4",
"w c #8E9DF4",
"e c #8D9EF4",
"r c #909FF4",
"t c #919FF4",
"y c #92A1F4",
"u c #93A2F5",
"i c #97A6F5",
"p c #9BAAF6",
"a c #9CABF6",
"s c #9FAEF6",
"d c #A2AFF6",
"f c #A2B1F7",
"g c #A6B3F7",
"h c #A9B4F7",
"j c #ACB8F7",
"k c #ADB8F7",
"l c #ACB7F8",
"z c #B1BCF7",
"x c #B6BFF8",
"c c #B6C1F8",
"v c #BAC3F8",
"b c #BBC4F8",
"n c #BCC5F9",
"m c #C3CBF9",
"M c #C5CDFA",
"N c #C9D0FA",
"B c #CAD1FA",
"V c #CDD4FB",
"C c #D1D8FA",
"Z c #D4D9FA",
"A c #D5DAFB",
"S c #D6DDFB",
"D c #D8DFFB",
"F c #DBDFFC",
"G c #DBE1FC",
"H c #DEE2FC",
"J c #E2E6FC",
"K c #E3E6FC",
"L c #E6EAFD",
"P c #E8EBFD",
"I c #E9ECFD",
"U c #EEEFFE",
"Y c #EFF0FE",
"T c #F3F5FE",
"R c #F4F5FE",
"E c #F5F6FE",
"W c #F7F7FE",
"Q c #F7F8FE",
"! c #FAFBFE",
"~ c #FBFBFE",
"^ c #FCFCFF",
"/ c white",
/* pixels */
"////////////////////////////////",
"////////////////////////////////",
"////////////////////////////////",
"////////////////////////////////",
"////////////////////////////////",
"////////////////////////////////",
"///////////////DA!//////////////",
"/////////////G#O+OT/////////////",
"////////////U<j!Ei;!////////////",
"////////////M1//aI=c////////////",
"////////////v6//zdM<!///////////",
"////////////D://B</=A///////////",
"/////////////=D/H@/py///////////",
"/////////////iyV2 sg=~//////////",
"/////////////J&Dvlgj#J//////////",
"//////////////ep////4m//////////",
"//////////////UO////tgEUY///////",
"///////////////vj///g6p547C/////",
"////////////////d!/!0@jL/E6E////",
"///////////Uba88eaP00!////Vn~///",
"//////////Ve2*=yCv+@E////!E0E!//",
"////////Ty$9bL////i:5!///!J2SSLE",
"////////y<J///////D3@nEB/!ex////",
"////////:D/////////v%#jid=tG////",
"////////6i!/Q///!///p:psNE/PH///",
"////////L=2cU/T/LT/S=VVP/////!//",
"/////////Ut.%ifJFh0@v/FT////////",
"////////!!!/n,O..XeL////////////",
"////////////!nT//DE/////////////",
"////////////EH//////////////////",
"////////////////////////////////",
"////////////////////////////////"
};
