/* XPM */
static char *_d1fc3cf9bfc484a995f5376ac2766591x1C2nxPZ25PwkaF[] = {
/* columns rows colors chars-per-pixel */
"64 64 46 1 ",
"  c #002057",
". c #002058",
"X c #002159",
"o c #00235D",
"O c #00245F",
"+ c #002460",
"@ c #002663",
"# c #002664",
"$ c #002767",
"% c #002867",
"& c #00296A",
"* c #002A6D",
"= c #002B6F",
"- c #002C72",
"; c #002D73",
": c #002D76",
"> c #002E78",
", c #00317B",
"< c #00317C",
"1 c #00337F",
"2 c #003380",
"3 c #003482",
"4 c #003483",
"5 c #003584",
"6 c #003688",
"7 c #00388B",
"8 c #00388C",
"9 c #00398F",
"0 c #003990",
"q c #003B90",
"w c #003C93",
"e c #003C94",
"r c #003E97",
"t c #003E98",
"y c #003F9B",
"u c #00409C",
"i c #00409D",
"p c #0041A0",
"a c #0043A4",
"s c #0044A7",
"d c #0045A8",
"f c #0047AD",
"g c #004AB1",
"h c #004AB2",
"j c #004DB7",
"k c #004DB8",
/* pixels */
"                                                                ",
"                                                                ",
"                                                                ",
"       X&1>*X                                                   ",
"      X*1599q+                                                  ",
"      O13+ O2p#                                                 ",
"     X&9+1*XXr>X                                                ",
"     X*9+u+ Oy1                                                 ",
"     X+yOX  #y; .Ody                                            ",
"    XXO5qX Oqr# X#jgO                                X&         ",
"      X+ap6ry;X   1>X                  .          XX5pygq X     ",
"        #5uy;       .          .       .          X;y**#yrX     ",
"         XX     ...      . .XXX.OXO.X ..          X9,&y+&g+     ",
"          X    ,1       XXOO++##XOO+OOXX          X5,X+.&k#     ",
"               jgO         O.O#*-;>>--$+O...      .#d1XXapX     ",
"               X              ... .X.#->;1-$XX     X*dkkuO      ",
"                  .X#++###O##+++OOOX  ..XXO&-;#O       .XX      ",
"              .XO+#&&*-;-1>24444251221;#O....XOOOO  ..   .      ",
"          .   O##-;>1;>--->->;>->1>256qerr2#OO.     .+>$        ",
"            XO+++OXX.... .. ..O  OOO+++*;>0yy5&O    O5#>&       ",
"                   X .  .OOOX$&*-->-#+XX. XO&5yy,O   555*       ",
"                    #->>154qqq68566256q1#O    X*9y-OXO*&        ",
"        XXX   ..X+*1;682,;&++XX+OO###***;1*O.    +qe#X.. OO.    ",
"        #+    .X&*155#O#O . O**#+###X...XO#+OX   ..&e;O. .#X    ",
"       #&O  . OO+,3-O    O3r668qqrrqyrq1+. XX .     O51XO #-X...",
"     .+;&O   .  ;y& .X O993;;;*&+OX .#-8s2##O .     .#2* O+>*.  ",
"    X.;>#X    XX8;   +->;;#$2qyuapy,>;..+0>;*XOXXX    #2O+O-1.  ",
"    ..1;$O  OOO+2-     .#>6fa6;*-*O ....Oq;OO- X++    O>-OO>2.  ",
"    XO51#O    O-56O.......+qddy9521;;>8yayO OX -2O    .*2#O,8X..",
"     O52OO .    &5yq&+X.X.X O1pappypssy>OX  XX;9>.    X;2#.58X .",
"     +22*O      XX*2yyyq5-+O   +-;*$#XX.O. O;qy-    .O-61#Xq2.  ",
"     O135# .O.  .  XO;448eypay93,;;;;>;*>>48q4+    O*5q2#.*p*   ",
"      &6>-O O#$+      X$$*>;2quaapupyyr98621#.X.X+15662O..qyO   ",
"       *5--OXO#;,*XX XXX....O#OX.X.O#**#OOXO+O+1qy812;XXX>y-    ",
"       X>5>#+XX#*2q1O XX..X. .X XXO+O+&#+*18yryy2+$&O.XX1y6O    ",
"        O12-OOXX O#1yy5;;;;>>>>11225539yyq52>1;&#OX...+58q#O    ",
"         .>>;&XXX   XO&36r966622222233311;>*+O XX...O;454+      ",
"          X##&&#O       XX X X#X+##O+OXOX X.X  X O-2446;#       ",
"            X+++#OO             X     X ..XXXO#*22,;>-+         ",
"              X XX          X O. .   XO+&#O+&&$+#**&+O..        ",
"                ..      X    O1ryyrrr55>*+XX                    ",
"                   .  XXXX   O#$#*#&+OXXX...                    ",
"                  XXOOXXXXXX XXX .X..    .  XO+O                ",
"                 OO++*;>,1;;*$&$&****&--155631#O                ",
"                   O;1;;,,3548qqqeyrryyr84>&+OX                 ",
"                   X+***&&%#$##**-&+OX...X.. X                  ",
"                     O&;;&;-;>;;&O .X. . X X                    ",
"                     .XX+**$#$#+#;;11--$##O++X                  ",
"                           O&*#OOO++++##$$#&;+                  ",
"                         X .  X#&**####*;156*                   ",
"                        X-,69ruyupppuyr65-XX                    ",
"                        X;#X  X                                 ",
"                        X *>*XX  X. X                           ",
"                          XX#,35,;*&#X                          ",
"                           X+#*;>;125652X                       ",
"                            X&;**&#X .X                         ",
"                            O;X...X                             ",
"                            .#-;,255O                           ",
"                            ..  ;91;.                           ",
"                             .  O,8,X                           ",
"                                  X&r#..                        ",
"                                    O-X.                        ",
"                                     X                          ",
"                                                               O"
};
