/* XPM */
static char *f176869b1aa24b73814ec2103177f152E477t5qx8DT0iWfb[] = {
/* columns rows colors chars-per-pixel */
"64 64 112 2 ",
"   c black",
".  c #050301",
"X  c #060301",
"o  c #030403",
"O  c #000105",
"+  c #050706",
"@  c #0A0602",
"#  c #0D0903",
"$  c #00030B",
"%  c #090B08",
"&  c #090C0B",
"*  c #0A0D0B",
"=  c #120C04",
"-  c #0D110E",
";  c #0E130F",
":  c #1D1609",
">  c #1F1609",
",  c #030A13",
"<  c #00061B",
"1  c #00061E",
"2  c #02101E",
"3  c #101612",
"4  c #131815",
"5  c #141917",
"6  c #161B19",
"7  c #191A19",
"8  c #1A1F1B",
"9  c #20170A",
"0  c #241B0C",
"q  c #261B0E",
"w  c #332613",
"e  c #342714",
"r  c #3C2D19",
"t  c #000723",
"y  c #000A23",
"u  c #000C23",
"i  c #000924",
"p  c #000925",
"a  c #000E24",
"s  c #000B29",
"d  c #000C2B",
"f  c #000C2C",
"g  c #000C2D",
"h  c #001126",
"j  c #001326",
"k  c #041426",
"l  c #001A2E",
"z  c #000E30",
"x  c #001033",
"c  c #001034",
"v  c #001436",
"b  c #00133A",
"n  c #00133C",
"m  c #202723",
"M  c #222924",
"N  c #242C28",
"B  c #272D29",
"V  c #2A322D",
"C  c #2C342F",
"Z  c #2D3630",
"A  c #303933",
"S  c #303934",
"D  c #323C36",
"F  c #333D36",
"G  c #3A3F36",
"H  c #44341D",
"J  c #4D3B22",
"K  c #3B4036",
"L  c #3C4136",
"P  c #3F4236",
"I  c #554226",
"U  c #5C4629",
"Y  c #414236",
"T  c #434336",
"R  c #454336",
"E  c #4C4735",
"W  c #534B35",
"Q  c #574C35",
"!  c #5B4E35",
"~  c #5D4F35",
"^  c #654E2E",
"/  c #67502F",
"(  c #605035",
")  c #675334",
"_  c #6A5231",
"`  c #6B5331",
"'  c #6E5633",
"]  c #695334",
"[  c #6D5534",
"{  c #6D5634",
"}  c #6F5734",
"|  c #705633",
" . c #705634",
".. c #715734",
"X. c #001742",
"o. c #001744",
"O. c #001A42",
"+. c #001947",
"@. c #001A4B",
"#. c #001B4E",
"$. c #001C4F",
"%. c #001C50",
"&. c #001E53",
"*. c #001F54",
"=. c #001F56",
"-. c #002251",
";. c #002751",
":. c #002354",
">. c #002057",
",. c #002950",
"<. c #002158",
"1. c #002760",
/* pixels */
">.>.>.>.>.>.>.>.>.>.>.>.>.>.>.>.>.>.>.>.>.>.>.>.>.>.>.>.>.>.>.>.>.>.>.>.>.>.>.>.>.>.>.>.>.>.>.>.>.>.>.>.>.>.>.>.>.>.>.>.>.>.>.>.",
">.>.>.>.>.>.>.>.>.>.>.>.>.>.>.>.>.>.>.>.>.>.>.>.>.>.>.>.>.>.>.>.>.>.>.>.>.>.>.>.>.>.>.>.>.>.>.>.>.>.>.>.>.>.>.>.>.>.>.>.>.>.>.>.",
">.>.>.>.>.>.>.>.>.>.>.>.>.>.>.>.>.>.>.>.>.>.>.>.>.>.>.>.>.>.>.>.>.>.>.>.>.>.>.>.>.>.>.>.>.>.>.>.>.>.>.>.>.>.>.>.>.>.>.>.>.>.>.>.",
">.>.>.>.>.>.>.>.>.>.>.>.>.>.>.>.>.>.>.>.>.>.>.>.>.>.>.>.>.>.>.>.>.>.>.>.>.>.>.>.>.>.>.>.>.>.>.>.>.>.>.>.>.>.>.>.>.>.>.>.>.>.>.>.",
">.>.>.>.>.>.>.>.>.>.>.>.>.>.>.>.>.>.>.>.>.>.>.>.>.>.>.>.>.>.>.>.>.>.>.>.>.>.>.>.>.>.>.>.>.>.>.>.>.>.>.>.>.>.>.>.>.>.>.>.>.>.>.>.",
">.>.>.>.>.>.>.>.>.>.>.>.>.>.>.>.>.>.>.>.>.>.>.>.>.>.>.>.>.>.>.>.>.>.>.>.>.>.>.>.>.>.>.>.>.>.>.>.>.>.>.>.>.>.>.>.>.>.>.>.>.>.>.>.",
">.>.>.>.>.>.>.>.>.>.>.>.>.>.>.>.>.>.>.>.>.>.>.>.>.>.>.>.>.>.>.>.>.>.>.>.>.>.>.>.>.>.>.>.>.>.>.>.>.>.>.>.>.>.>.>.>.>.>.>.>.>.>.>.",
">.>.>.>.>.>.>.>.>.>.>.>.>.>.>.>.>.>.>.>.>.>.>.>.>.>.>.>.>.>.>.>.>.>.>.>.>.>.>.>.>.>.>.>.>.>.>.>.>.>.>.>.>.>.>.>.>.>.>.>.>.>.>.>.",
">.>.>.>.>.>.>.>.>.>.>.>.>.>.>.>.>.>.>.>.>.>.>.>.>.>.>.>.>.>.>.>.>.>.>.>.>.>.>.>.>.>.>.>.>.>.>.>.>.>.>.>.>.>.>.>.>.>.>.>.>.>.>.>.",
">.>.>.>.>.>.>.>.>.>.>.>.>.>.>.>.>.>.>.>.>.>.>.>.>.>.>.>.>.>.>.>.>.>.>.>.>.>.>.>.>.>.>.>.>.>.>.>.>.>.>.>.>.>.>.>.>.>.>.>.>.>.>.>.",
">.>.>.>.>.>.>.>.>.>.>.>.>.>.>.>.>.>.>.>.>.>.>.>.>.>.>.>.>.>.>.>.>.>.>.>.>.>.>.>.>.>.>.>.>.>.>.>.>.>.>.>.>.>.>.>.>.>.>.>.>.>.>.>.",
">.>.>.>.>.>.>.>.>.>.>.>.>.>.>.>.>.>.>.>.>.>.>.>.>.>.>.>.>.>.>.>.>.>.>.>.&.X.#.>.>.>.>.>.>.>.>.>.>.>.>.>.>.>.>.>.>.>.>.>.>.>.>.>.",
">.>.>.>.>.>.>.>.>.>.>.>.>.>.>.>.>.>.>.>.>.>.>.>.>.>.>.>.>.>.>.>.>.>.>.>.      >.>.>.>.>.>.>.>.>.>.>.>.>.>.>.>.>.>.>.>.>.>.>.>.>.",
">.>.>.>.>.>.>.>.>.>.>.>.>.>.>.>.>.>.>.>.>.>.>.>.>.>.>.>.>.>.>.>.>.>.>.>.  / r   >.>.>.>.>.>.>.>.>.>.>.>.>.>.>.>.>.>.>.>.>.>.>.>.",
">.>.>.>.>.>.>.>.>.>.>.>.>.>.>.>.>.>.>.>.>.>.>.>.>.>.>.>.>.>.>.>.>.>.>.>.  H ..    >.X.O >.>.>.>.>.>.>.>.>.>.>.>.>.>.>.>.>.>.>.>.",
">.>.>.>.>.>.>.>.>.>.>.>.>.>.>.>.>.>.>.>.>.>.>.>.>.>.>.>.>.>.>.>.>.>.>.>.  # ..J   >.      >.>.>.>.>.>.>.>.>.>.>.>.>.>.>.>.>.>.>.",
">.>.>.>.>.>.>.>.>.>.>.>.>.>.>.>.>.>.>.>.>.>.>.>.>.>.>.>.>.>.>.>.>.>.>.>.>.  / ..      ..  >.>.>.>.>.>.>.>.>.>.>.>.>.>.>.>.>.>.>.",
">.>.>.>.>.>.>.>.>.>.>.>.>.>.>.>.>.>.>.>.>.>.>.>.>.>.>.>.>.>.>.>.>.>.>.>.>.  e ..U     ..  >.>.>.>.>.>.>.>.>.>.>.>.>.>.>.>.>.>.>.",
">.>.>.>.>.>.>.>.>.>.>.>.>.>.>.>.>.>.>.>.>.>.>.>.>.>.>.>.>.>.>.>.>.>.>.>.>.    ..........  >.>.>.>.>.>.>.>.>.>.>.>.>.>.>.>.>.>.>.",
">.>.>.>.>.>.>.>.>.>.>.<.>.>.>.>.>.>.>.>.>.>.>.>.>.>.>.>.>.>.>.>.>.>.>.>.>.    ..........  >.>.>.>.>.>.>.>.>.>.>.>.>.>.>.>.>.>.>.",
">.>.>.>.>.>.>.+.            $ O.>.>.>.>.>.>.>.>.>.>.>.>.>.>.>.>.>.>.>.>.>.>.  9 ........    +.>.>.>.>.>.>.>.>.>.>.>.>.>.>.>.>.>.",
">.>.>.>.>.>.#.                      2 -.>.>.>.>.>.>.>.>.>.>.>.>.>.>.>.>.>.>.    ..........    X.$.$.*.>.>.>.>.>.>.>.>.>.>.>.>.>.",
">.>.>.>.>.&.O   w e   q ....J >           >.>.>.>.>.>.>.>.>.>.>.>.>.>.>.>.>.    ..........                        *.>.>.>.>.>.>.",
">.>.>.>.>.v     .._     ^ ........../ q                                                       . H I ^ / _ _ _ _   <.>.>.>.>.>.>.",
">.>.>.>.>.O   ......q   q ......................................................| ` ` _ _ ....................}     >.<.>.>.>.>.",
">.>.>.>.>.    ........=   ......................................................................................q   *.>.>.>.>.>.",
">.>.>.>.>.  ..9     ....  > ....................................................................................U   <.>.>.>.>.>.",
">.>.>.>.>.  ..  q @   ..    ....................................................................................'     >.>.>.>.>.",
">.>.>.>.>.  ..  | ..    ..  ................................................              . .......................   >.>.>.>.>.",
">.>.>.>.>.  ..........  ..  ..............................................    ............    ......................  ,.>.>.>.>.",
">.>.>.>.>.  ..    # ..  ..  ....................................' | ..      ...         . ..    ....................  ,.>.>.>.>.",
">.>.>.>.>.  ..      }   ..  ......................................| ......_ ..  ........    ..    ..' ..............  ;.>.>.>.>.",
">.>.>.>.>.  ..      ..  ..  ....................................      # ^ ....  ..    ....  ....        ..........}   :.>.>.>.>.",
">.>.>.>.>.  }   ..  ..  ..  ..........................................    / ..  ....    ..  ....................[ Q   >.>.>.>.>.",
">.>.>.>.>.  E   ..  ..  ..  ............................................    | _       ....  ..................} ~ Y   >.>.>.>.>.",
">.>.>.>.>.  D   }   ..  ..  ..............................................  . ' ' ......    ..................) Y D   >.>.>.>.>.",
">.>.>.>.>.  D   P Q }   ..  ......[ ........} ..........} } ................              ..................] R D D   >.>.>.>.>.",
">.>.>.>.>.  D   D D K   E   Q Q ! ! ~ ( ~ ) ] [ } ] } ..} } ] ] } | ............} ......} } ..' } } ] ] ~ W Y F D o   >.>.>.>.>.",
">.>.>.>.$.  D   * Z   - F   F F F F D G G P G P Y Y Y Y T K K P P R R Y Y Y Y Y P P P Y Y Y Y Y P P G D F F D D o     >.>.>.>.>.",
">.>.>.n z   D         D     F F F F F F F F F F F F F D F D D F D D F F F D D D D D D D D D F F D D D D D D D D     l $.>.>.>.>.",
">.>.@.s i   + D     F F   M D D F F D D D D D D D D D D D D F F D D D D D D D D D D D D D D D D D D D D D D D 8   i i O.&.>.>.>.",
">.>.X.i i     D D D D     D D D F F D D D D D D D D D D D D F F F F F D D D D D D D D D D F D D D D D D D D D     1 i b <.>.>.>.",
">.*.n i i 7     D D F   . D D D F F D D V S D D F D B                               3 M A F D D D D D D D D N   i i i b >.>.>.>.",
">.>.O.i i k     F F     m D N 5 *       O 4 D D F F +   s i i i a a a i i i i i i           * 8 C D D D D D o   < i i +.>.>.>.>.",
">.>.+.i i i ,     F     *         j a j   M D D D ;   i i i i i i i i i i i i i i i i i             o * 4 +   i i i i #.>.>.>.>.",
">.>.+.i i i i                 i i i i     Z D D 6   i i i i i i i i i i i i i i i i i i i i i i               i i i b >.>.>.>.>.",
">.>.$.i i i i 1       i i 1 i i i i     o         i i s s i i i i i i i i i s i i i i i i i i i i i i i i i i i i z $.>.>.>.>.>.",
">.>.>.x i i i i i i i i i i i i i i i i i i s s i i t i i i i i i i i i i i i i i i i i i i i i i i i i i i i i s @.&.>.>.>.>.>.",
">.>.>.@.s i i i i i i i i i s i i i i i s i s s i i s i s s f f s i i i i i i i i i i i i i i i i i i i i i i z #.>.>.>.>.>.>.>.",
">.>.>.&.@.b s i i i z g g s f z z f z z c n n o.X.o.#.#.#.&.*.<.*.#.#.o.n z z g f s s s i i s i i s s f f b @.*.>.>.>.>.>.>.>.>.",
">.>.>.>.<.*.#.O.X.#.*.*.<.=.=.=.<.=.<.=.<.=.<.=.>.>.&.>.>.>.>.>.<.*.<.=.*.*.*.*.&.#.+.n n b n X.@.&.*.*.*.>.>.>.>.>.>.>.>.>.>.>.",
">.>.>.>.*.<.*.>.*.=.*.<.=.<.=.<.=.<.=.<.=.<.=.<.>.>.>.>.>.>.>.>.=.<.=.<.=.<.=.<.*.&.>.>.>.<.>.>.>.>.>.<.>.>.>.>.>.>.>.>.>.>.>.>.",
">.>.>.>.>.>.>.>.<.=.<.=.<.=.<.=.<.=.<.=.<.=.<.=.>.>.>.>.>.>.>.>.<.=.<.=.<.=.<.=.<.=.<.=.>.>.>.>.>.>.>.>.>.>.>.>.>.>.>.>.>.>.>.>.",
">.>.>.>.>.>.>.>.=.<.=.<.=.<.=.<.=.<.=.<.=.<.=.<.>.>.>.>.>.>.>.>.=.<.=.<.=.<.=.<.*.<.=.<.>.>.>.>.>.>.>.>.>.>.>.>.>.>.>.>.>.>.>.>.",
">.>.>.>.>.>.>.>.<.=.<.=.<.=.<.=.<.=.<.=.<.=.<.=.>.>.>.>.>.>.>.>.<.=.<.=.<.=.<.=.<.=.<.=.>.>.>.>.>.>.>.>.>.>.>.>.>.>.>.>.>.>.>.>.",
">.>.>.>.>.>.>.>.=.<.=.<.=.<.=.<.=.<.=.<.=.<.=.<.>.>.>.>.>.>.>.>.=.<.=.<.=.<.=.<.=.<.=.<.>.>.>.>.>.>.>.>.>.>.>.>.>.>.>.>.>.>.>.>.",
"<.=.<.=.<.=.<.=.<.=.<.=.<.=.<.=.<.=.<.=.<.=.<.=.<.=.<.=.<.=.<.=.<.=.<.=.<.=.<.=.>.>.>.>.>.>.>.>.>.>.>.>.>.>.>.>.>.>.>.>.>.>.>.>.",
"=.<.=.<.=.<.=.<.=.<.=.<.=.<.=.<.=.<.=.<.=.<.=.<.=.<.=.<.=.<.=.<.=.<.=.<.=.<.=.<.>.>.>.>.>.>.>.>.>.>.>.>.>.>.>.>.>.>.>.>.>.>.>.>.",
"<.=.<.=.<.=.<.=.<.=.<.=.<.=.<.=.<.=.<.=.<.=.<.=.<.=.<.=.<.=.<.=.<.=.<.=.<.=.<.=.>.>.>.>.>.>.>.>.>.>.>.>.>.>.>.>.>.>.>.>.>.>.>.>.",
"=.<.=.<.=.<.=.<.=.<.=.<.=.<.=.<.=.<.=.<.=.<.=.<.=.<.=.<.=.<.=.<.=.<.=.<.=.<.=.<.>.>.>.>.>.>.>.>.>.>.>.>.>.>.>.>.>.>.>.>.>.>.>.>.",
"<.=.<.=.<.=.<.=.<.=.<.=.<.=.<.=.<.=.<.=.<.=.<.=.<.=.<.=.<.=.<.=.<.=.<.=.<.=.<.=.>.>.>.>.>.>.>.>.>.>.>.>.>.>.>.>.>.>.>.>.>.>.>.>.",
"=.<.=.<.=.<.=.<.=.<.=.<.=.<.=.<.=.<.=.<.=.<.=.<.=.<.=.<.=.<.=.<.=.<.=.<.=.<.=.<.>.>.>.>.>.>.>.>.>.>.>.>.>.>.>.>.>.>.>.>.>.>.>.>.",
"<.=.<.=.<.=.<.=.<.=.<.=.<.=.<.=.<.=.<.=.<.=.<.=.<.=.<.=.<.=.<.=.<.=.<.=.<.=.<.=.>.>.>.>.>.>.>.>.>.>.>.>.>.>.>.>.>.>.>.>.>.>.>.>.",
"=.<.=.<.=.<.=.<.=.<.=.<.=.<.=.<.=.<.=.<.=.<.=.<.=.<.=.<.=.<.=.<.=.<.=.<.=.<.=.<.>.>.>.>.>.>.>.>.>.>.>.>.>.>.>.>.>.>.>.>.>.>.<.1."
};
