/* XPM */
static char *_27423011aa84269917fa19fbbe749b1AIcIhyk6MmceADwV[] = {
/* columns rows colors chars-per-pixel */
"32 32 6 1 ",
"  c None",
". c #231E2B",
"X c #66151B",
"o c #892727",
"O c #B0392E",
"+ c #F7FEFF",
/* pixels */
"  ++++++++++++++++++++++++++++  ",
"  ++++++++++++++++++++++++++++  ",
"++............................++",
"++............................++",
"++..ooOOOOXXooOOOOOOXXooOOOO..++",
"++..ooOOOOXXooOOOOOOXXooOOOO..++",
"++..ooooooXXooooooooXXoooooo..++",
"++..ooooooXXooooooooXXoooooo..++",
"++..XXXXXXXXXXXXXXXXXXXXXXXX..++",
"++..XXXXXXXXXXXXXXXXXXXXXXXX..++",
"++..OOOOXXooOOOOOOXXooOOOOOO..++",
"++..OOOOXXooOOOOOOXXooOOOOOO..++",
"++..ooooXXooooooooXXoooooooo..++",
"++..ooooXXooooooooXXoooooooo..++",
"++..XXXXXXXXXXXXXXXXXXXXXXXX..++",
"++..XXXXXXXXXXXXXXXXXXXXXXXX..++",
"++..ooOOOOOOXXooOOOOOOXXooOO..++",
"++..ooOOOOOOXXooOOOOOOXXooOO..++",
"++..ooooooooXXooooooooXXoooo..++",
"++..ooooooooXXooooooooXXoooo..++",
"++..XXXXXXXXXXXXXXXXXXXXXXXX..++",
"++..XXXXXXXXXXXXXXXXXXXXXXXX..++",
"++..OOXXooOOOOOOXXooOOOOXXOO..++",
"++..OOXXooOOOOOOXXooOOOOXXOO..++",
"++..ooXXooooooooXXooooooXXoo..++",
"++..ooXXooooooooXXooooooXXoo..++",
"++..XXXXXXXXXXXXXXXXXXXXXXXX..++",
"++..XXXXXXXXXXXXXXXXXXXXXXXX..++",
"++............................++",
"++............................++",
"  ++++++++++++++++++++++++++++  ",
"  ++++++++++++++++++++++++++++  "
};
